<?xml version="1.0" encoding="utf-8"?>
<!-- Generator: Adobe Illustrator 21.1.0, SVG Export Plug-In . SVG Version: 6.00 Build 0)  -->
<svg version="1.1" id="Layer_1" xmlns="http://www.w3.org/2000/svg" xmlns:xlink="http://www.w3.org/1999/xlink" x="0px" y="0px"
	 viewBox="0 0 444 190.3" style="enable-background:new 0 0 444 190.3;" xml:space="preserve">
<style type="text/css">
	.st0{enable-background:new    ;}
	.st1{fill:#0078D7;}
</style>
<g transform="matrix(1,0,0,1,-197.707,-260.107)">
	<g class="st0">
		<path class="st1" d="M278.3,341.2h-8.8v-50.7c0-4,0.2-8.9,0.7-14.7H270c-0.8,3.4-1.6,5.9-2.3,7.3l-25.8,58.1h-4.3l-25.8-57.7
			c-0.7-1.7-1.5-4.3-2.3-7.7h-0.2c0.3,3,0.4,8,0.4,14.8v50.6h-8.5v-75.6h11.7l23.2,52.7c1.8,4,3,7.1,3.5,9.1h0.3
			c1.5-4.1,2.7-7.2,3.6-9.3l23.7-52.5h11.1V341.2z"/>
		<path class="st1" d="M301.5,273.5c-1.5,0-2.9-0.5-4-1.6c-1.1-1.1-1.6-2.4-1.6-4c0-1.6,0.5-3,1.6-4c1.1-1.1,2.4-1.6,4-1.6
			c1.6,0,2.9,0.5,4,1.6c1.1,1.1,1.7,2.4,1.7,4c0,1.5-0.6,2.9-1.7,4C304.4,273,303,273.5,301.5,273.5z M305.7,341.2H297v-54h8.6
			V341.2z"/>
		<path class="st1" d="M360,338.7c-4.1,2.5-9.1,3.7-14.8,3.7c-7.7,0-13.9-2.5-18.6-7.5c-4.7-5-7.1-11.5-7.1-19.5
			c0-8.9,2.5-16,7.6-21.4c5.1-5.4,11.9-8.1,20.4-8.1c4.7,0,8.9,0.9,12.5,2.6v8.9c-4-2.8-8.3-4.2-12.9-4.2c-5.5,0-10,2-13.6,5.9
			c-3.5,4-5.3,9.1-5.3,15.6c0,6.3,1.7,11.3,5,15c3.3,3.7,7.8,5.5,13.4,5.5c4.7,0,9.1-1.6,13.3-4.7V338.7z"/>
		<path class="st1" d="M401.2,296c-1.5-1.2-3.7-1.7-6.5-1.7c-3.7,0-6.8,1.7-9.3,5.2c-2.5,3.5-3.7,8.2-3.7,14.2v27.5H373v-54h8.6
			v11.1h0.2c1.2-3.8,3.1-6.8,5.6-8.9c2.5-2.1,5.4-3.2,8.5-3.2c2.2,0,4,0.2,5.2,0.7V296z"/>
		<path class="st1" d="M433.1,342.4c-8,0-14.3-2.5-19.1-7.6c-4.8-5-7.1-11.7-7.1-20.1c0-9.1,2.5-16.1,7.4-21.2
			c5-5.1,11.7-7.6,20.1-7.6c8,0,14.3,2.5,18.8,7.4s6.8,11.8,6.8,20.6c0,8.6-2.4,15.5-7.3,20.7C447.8,339.9,441.3,342.4,433.1,342.4z
			 M433.8,293.2c-5.6,0-9.9,1.9-13.2,5.7c-3.2,3.8-4.9,9-4.9,15.6c0,6.4,1.6,11.4,4.9,15.1c3.3,3.7,7.6,5.5,13.1,5.5
			c5.6,0,9.9-1.8,12.9-5.4c3-3.6,4.5-8.8,4.5-15.4c0-6.7-1.5-11.9-4.5-15.6C443.6,295,439.4,293.2,433.8,293.2z"/>
	</g>
	<g class="st0">
		<path class="st1" d="M470.6,339.2V330c4.7,3.5,9.9,5.2,15.6,5.2c7.6,0,11.4-2.5,11.4-7.6c0-1.4-0.3-2.7-1-3.7s-1.5-1.9-2.6-2.7
			c-1.1-0.8-2.4-1.5-3.9-2.1c-1.5-0.6-3.1-1.3-4.8-1.9c-2.4-0.9-4.5-1.9-6.3-2.9c-1.8-1-3.3-2.1-4.5-3.3c-1.2-1.2-2.1-2.6-2.7-4.1
			c-0.6-1.5-0.9-3.4-0.9-5.4c0-2.5,0.6-4.8,1.7-6.7c1.2-2,2.7-3.6,4.6-4.9s4.1-2.3,6.6-3c2.5-0.7,5-1,7.7-1c4.7,0,8.9,0.8,12.5,2.4
			v8.8c-4-2.6-8.5-3.9-13.7-3.9c-1.6,0-3.1,0.2-4.4,0.6c-1.3,0.4-2.4,0.9-3.3,1.6c-0.9,0.7-1.7,1.5-2.2,2.4c-0.5,0.9-0.8,2-0.8,3.1
			c0,1.4,0.3,2.6,0.8,3.5c0.5,0.9,1.3,1.8,2.2,2.5c1,0.7,2.2,1.4,3.6,2c1.4,0.6,3,1.2,4.8,2c2.4,0.9,4.5,1.9,6.4,2.8
			c1.9,1,3.5,2.1,4.8,3.3c1.3,1.2,2.4,2.6,3.1,4.2c0.7,1.6,1.1,3.5,1.1,5.6c0,2.7-0.6,5-1.8,7c-1.2,2-2.8,3.6-4.7,4.9
			c-2,1.3-4.2,2.3-6.8,2.9c-2.6,0.6-5.3,0.9-8.1,0.9C479.5,342.4,474.6,341.4,470.6,339.2z"/>
	</g>
	<g>
		<path class="st1" d="M542.2,342.4c-8,0-14.3-2.5-19.1-7.6c-4.8-5-7.1-11.7-7.1-20.1c0-9.1,2.5-16.1,7.4-21.2
			c5-5.1,11.7-7.6,20.1-7.6c8,0,14.3,2.5,18.8,7.4c4.5,5,6.8,11.8,6.8,20.6c0,8.6-2.4,15.5-7.3,20.7
			C556.9,339.9,550.4,342.4,542.2,342.4z M542.8,293.2c-5.6,0-9.9,1.9-13.2,5.7c-3.2,3.8-4.8,9-4.8,15.6c0,6.4,1.6,11.4,4.9,15.1
			s7.6,5.5,13.1,5.5c5.6,0,9.9-1.8,12.9-5.4c3-3.6,4.5-8.8,4.5-15.4c0-6.7-1.5-11.9-4.5-15.6C552.7,295,548.4,293.2,542.8,293.2z"/>
		<path class="st1" d="M609.6,268.9c-1.7-0.9-3.6-1.4-5.7-1.4c-6,0-9.1,3.8-9.1,11.4v8.3h12.7v7.4h-12.7v46.6h-8.6v-46.6h-9.2v-7.4
			h9.2v-8.8c0-5.7,1.6-10.1,4.9-13.4c3.3-3.3,7.3-4.9,12.2-4.9c2.6,0,4.7,0.3,6.3,0.9V268.9z"/>
	</g>
	<g class="st0">
		<path class="st1" d="M641.7,340.7c-2,1.1-4.7,1.7-8.1,1.7c-9.5,0-14.2-5.3-14.2-15.8v-31.9h-9.3v-7.4h9.3V274l8.6-2.8v16h13.6v7.4
			h-13.6V325c0,3.6,0.6,6.2,1.8,7.7c1.2,1.5,3.3,2.3,6.1,2.3c2.2,0,4.1-0.6,5.6-1.8V340.7z"/>
	</g>
	<g class="st0">
		<path class="st1" d="M197.7,446.1v-10.4c1.2,1.1,2.6,2,4.3,2.8c1.7,0.8,3.4,1.6,5.3,2.1s3.7,1,5.6,1.3c1.9,0.3,3.6,0.5,5.2,0.5
			c5.4,0,9.5-1,12.2-3s4-4.9,4-8.7c0-2-0.4-3.8-1.3-5.3c-0.9-1.5-2.1-2.9-3.7-4.1c-1.6-1.2-3.5-2.4-5.6-3.6c-2.2-1.1-4.5-2.3-7-3.6
			c-2.6-1.3-5.1-2.7-7.4-4.1c-2.3-1.4-4.3-2.9-6-4.5c-1.7-1.7-3-3.5-4-5.6c-1-2.1-1.4-4.5-1.4-7.4c0-3.4,0.8-6.4,2.3-9
			c1.5-2.5,3.5-4.6,6-6.3c2.5-1.7,5.3-2.9,8.4-3.7c3.1-0.8,6.4-1.2,9.6-1.2c7.5,0,12.9,0.9,16.3,2.7v10c-4.5-3.1-10.2-4.6-17.2-4.6
			c-1.9,0-3.9,0.2-5.8,0.6c-1.9,0.4-3.7,1.1-5.2,2c-1.5,0.9-2.7,2.1-3.7,3.5c-0.9,1.4-1.4,3.2-1.4,5.3c0,1.9,0.4,3.6,1.1,5
			c0.7,1.4,1.8,2.7,3.2,3.8c1.4,1.2,3.1,2.3,5.1,3.4c2,1.1,4.3,2.3,7,3.6c2.7,1.3,5.3,2.7,7.7,4.2c2.4,1.5,4.6,3.1,6.4,4.9
			c1.8,1.8,3.3,3.8,4.3,6c1.1,2.2,1.6,4.7,1.6,7.5c0,3.7-0.7,6.9-2.2,9.5c-1.5,2.6-3.4,4.7-5.9,6.3c-2.5,1.6-5.3,2.8-8.6,3.5
			c-3.2,0.7-6.6,1.1-10.2,1.1c-1.2,0-2.7-0.1-4.4-0.3c-1.8-0.2-3.5-0.5-5.4-0.8c-1.8-0.4-3.6-0.8-5.2-1.4
			C200,447.4,198.7,446.8,197.7,446.1z"/>
		<path class="st1" d="M303.3,381.6h-21.8v67.6h-8.9v-67.6h-21.8v-8h52.5V381.6z"/>
	</g>
	<g class="st0">
		<path class="st1" d="M361.6,446c-5.6,3-12.5,4.4-20.9,4.4c-10.8,0-19.4-3.5-25.8-10.4c-6.5-6.9-9.7-16-9.7-27.3
			c0-12.1,3.6-21.9,10.9-29.3c7.3-7.5,16.5-11.2,27.7-11.2c7.2,0,13.1,1,17.8,3.1v9.4c-5.4-3-11.4-4.5-17.9-4.5
			c-8.7,0-15.7,2.9-21.1,8.7c-5.4,5.8-8.1,13.5-8.1,23.2c0,9.2,2.5,16.5,7.6,22c5,5.5,11.7,8.2,19.8,8.2c7.6,0,14.2-1.7,19.7-5.1
			V446z"/>
	</g>
</g>
</svg>
