<svg xmlns="http://www.w3.org/2000/svg" xmlns:xlink="http://www.w3.org/1999/xlink" xmlns:fi="http://pattern.flaticon.com/" x="0" y="0" width="2160" height="1080" viewBox="0 0 2520 1260"><rect x="0px" y="0px" width="100%" height="100%" opacity="1" fill="#9f00fa"/><defs><g transform="matrix(0.13284122943878174 0 0 0.13284122943878174 189.99264526367188 106.99264526367188)" id="L1_38"><g><path d="M412.83,432H99.17l33.461-290h246.738L412.83,432z" fill="#ff6849"/><rect x="241px" y="0px" width="30px" height="60px" fill="#ff6849"/><rect x="112px" y="45px" width="59px" height="29px" transform="matrix(-0.5 -0.866 0.866 -0.5 162.296 214.2562)" fill="#ff6849"/><rect x="30px" y="127px" width="59px" height="29px" transform="matrix(-0.866 -0.5 0.5 -0.866 40.9882 296.977)" fill="#ff6849"/><rect x="0px" y="241px" width="60px" height="30px" fill="#ff6849"/></g><g><rect x="452px" y="241px" width="60px" height="30px" fill="#e8130f"/><rect x="436px" y="112px" width="29px" height="59px" transform="matrix(-0.5 -0.866 0.866 -0.5 553.7572 605.6857)" fill="#e8130f"/><rect x="353px" y="30px" width="29px" height="59px" transform="matrix(-0.866 -0.5 0.5 -0.866 658.4129 296.9707)" fill="#e8130f"/><path d="M256,432 412.83,432 379.369,142 256,142z" fill="#e8130f"/></g><path d="M451,512H61v-90h390V512z" fill="#dfdfe1"/><path d="M451,512H256v-90h195V512z" fill="#afaeb4"/></g><g transform="matrix(8.082111334032312e-18 -0.13199089467525482 0.13199089467525482 8.082111334032312e-18 285.2189604975283 214.66630767658353)" id="L1_48"><path d="M436.652,437.385c80.309-79.887,100.308-206.63,40.982-309.359  C442.386,66.943,385.75,25.906,322.627,8.884c-5.562,1.398-191.412,49.794-66.637,247.12  C492.322,246.48,436.871,436.635,436.652,437.385z" id="L1_55" fill="#f6bb42"/><path d="M216.711,113.839l-2.266,1.133c-5.515,35.256,3.789,81.324,41.544,141.032  c236.333-9.523,180.881,180.631,180.663,181.381c30.358-30.201,52.092-67.105,64.185-106.854  C501.524,321.047,513.258,113.839,216.711,113.839z" id="SVGCleanerId_1" fill="#4a89dc"/><path d="M8.573,321.765c29.03,109.479,128.79,190.194,247.416,190.194  c70.528,0,134.4-28.529,180.694-74.684c1.562-5.531,52.576-190.67-180.694-181.271C146.066,465.429,9.112,322.328,8.573,321.765z" id="SVGCleanerId_2" fill="#5d9cec"/><path d="M436.652,437.385c80.309-79.887,100.308-206.63,40.982-309.359   C442.386,66.943,385.75,25.906,322.627,8.884c-5.562,1.398-191.412,49.794-66.637,247.12   C492.322,246.48,436.871,436.635,436.652,437.385z" id="L1_56" fill="#f6bb42"/><path d="M216.711,113.839l-2.266,1.133c-5.515,35.256,3.789,81.324,41.544,141.032   c236.333-9.523,180.881,180.631,180.663,181.381c30.358-30.201,52.092-67.105,64.185-106.854   C501.524,321.047,513.258,113.839,216.711,113.839z" id="SVGCleanerId_1_1_" fill="#4a89dc"/><path d="M8.573,321.765c29.03,109.479,128.79,190.194,247.416,190.194   c70.528,0,134.4-28.529,180.694-74.684c1.562-5.531,52.576-190.67-180.694-181.271C146.066,465.429,9.112,322.328,8.573,321.765z" id="SVGCleanerId_2_1_" fill="#5d9cec"/><path d="M398.748,293.08l0.141-2.531c-27.764-22.421-72.324-37.389-142.899-34.545  C146.066,465.429,9.112,322.328,8.573,321.765c10.976,41.389,32.061,78.652,60.45,109.01  C76.882,436.119,250.467,549.879,398.748,293.08z" fill="#f6bb42"/><path d="M322.752,8.86C213.406-20.756,93.647,25.304,34.337,128.026  C-0.934,189.108-8.16,258.683,8.659,321.859c3.992,4.109,138.829,140.852,247.331-65.855C129.574,56.092,321.986,9.04,322.752,8.86z  " fill="#ffce54"/><path d="M152.503,361.092l2.117,1.391c33.303-12.858,68.536-43.936,101.37-106.479  C129.574,56.092,321.986,9.04,322.752,8.86C281.427-2.335,238.592-2.71,198.11,6.696C189.556,10.837,4.238,104.277,152.503,361.092z  " fill="#5d9cec"/></g><g transform="matrix(0.1171875 0 0 0.1171875 57 4)" id="L1_50"><path d="M7.501,502.498 502.498,502.498 502.498,7.501 7.501,7.501z" fill="#ffe100"/><path d="M476.895,502.498 502.498,502.498 502.498,7.501 476.895,7.501z" fill="#ffa800"/><path d="M7.501,502.498 33.104,502.498 33.104,7.501 7.501,7.501z" fill="#ffffff"/><path d="M502.499,511H7.501C2.806,511-1,507.194-1,502.499V7.501C-1,2.806,2.806-1,7.501-1h494.998C507.194-1,511,2.806,511,7.501   v494.998C511,507.194,507.194,511,502.499,511z M16.002,493.998h477.996V16.002H16.002V493.998z"/><path d="M391.551,468.328c-42.334,0-76.777-34.442-76.777-76.777c0-4.695,3.807-8.501,8.501-8.501c4.695,0,8.501,3.806,8.501,8.501   c0,32.959,26.815,59.775,59.775,59.775s59.775-26.815,59.775-59.775s-26.815-59.775-59.775-59.775   c-42.334,0-76.777-34.442-76.777-76.777s34.442-76.776,76.777-76.776s76.777,34.442,76.777,76.777c0,4.695-3.806,8.501-8.501,8.501   c-4.695,0-8.501-3.806-8.501-8.501c0-32.96-26.815-59.775-59.775-59.775S331.776,222.04,331.776,255   c0,32.959,26.815,59.775,59.775,59.775c42.334,0,76.777,34.442,76.777,76.777S433.885,468.328,391.551,468.328z"/><path d="M212.328,468.328c-42.334,0-76.777-34.442-76.777-76.777c0-4.695,3.806-8.501,8.501-8.501s8.501,3.806,8.501,8.501   c0,32.959,26.814,59.775,59.775,59.775s59.775-26.815,59.775-59.775V186.724c0-4.695,3.806-8.501,8.501-8.501   s8.501,3.806,8.501,8.501v204.826C289.103,433.885,254.662,468.328,212.328,468.328z"/></g><g transform="matrix(1.1538461446762085 0 0 1.1538461446762085 -19 257)" id="L1_52"><path d="M44.5,20.232h-6v4h4c1.1,0,2,0.9,2,2v10c0,1.1-0.9,2-2,2h-4v4h6c2.2,0,4-1.8,4-4v-14   C48.5,22.032,46.7,20.232,44.5,20.232z" fill="#e6e6e6"/><path d="M32.5,4c-1.383,0-2.653,0.472-3.667,1.258C27.837,3.325,25.825,2,23.5,2   c-0.849,0-1.655,0.178-2.387,0.496C19.924,0.979,18.078,0,16,0c-3.125,0-5.732,2.205-6.356,5.144C9.275,5.057,8.895,5,8.5,5   c-2.761,0-5,2.239-5,5v8c0,1.1,0.9,2,2,2h1c1.1,0,2-0.9,2-2v-1.596C9.106,16.775,9.809,17,10.568,17h1.967   c1.275,0,2.402-0.615,3.136-1.551C16.76,16.988,18.55,18,20.568,18c3.3,0,6-2.7,6-6h11.583c0.222-0.626,0.349-1.298,0.349-2   C38.5,6.686,35.814,4,32.5,4z" fill="#e6e6e6"/><path d="M26.568,12c0,3.3-2.7,6-6,6c-2.018,0-3.808-1.012-4.897-2.551C14.937,16.385,13.81,17,12.535,17   h-1.967c-0.758,0-1.462-0.225-2.068-0.596V47c0,2.75,2.25,5,5,5h20c2.75,0,5-2.25,5-5V12H26.568z" fill="#f4c44e"/><path d="M14.5,25c0-1.65-1.35-3-3-3s-3,1.35-3,3v21h6V25z" fill="#f9da49"/><path d="M20.5,25c0-1.65-1.35-3-3-3s-3,1.35-3,3v21h6V25z" fill="#eeaf4b"/><path d="M26.5,25c0-1.65-1.35-3-3-3s-3,1.35-3,3v21h6V25z" fill="#f9da49"/><path d="M32.5,25c0-1.65-1.35-3-3-3s-3,1.35-3,3v21h6V25z" fill="#eeaf4b"/><path d="M38.5,25c0-1.65-1.35-3-3-3s-3,1.35-3,3v21h6V25z" fill="#f9da49"/></g><g transform="matrix(0.25706472992897034 0 0 0.25706472992897034 179.3365276209571 208.46748794138455)" id="L1_54"><path d="M342.262,187.855c0,1.17-0.08,2.34-0.19,3.5h-17.58c-8.55,0-15.5,6.95-15.5,15.5     c0,0.27-0.23,0.5-0.5,0.5h-12c-6.27,0-11.9,2.71-15.83,6.99c-7.24-6.81-11.4-16.27-11.4-26.49c0-20.13,16.37-36.5,36.5-36.5     C325.882,151.355,342.262,167.725,342.262,187.855z" fill="#e0974f"/><path d="M400.492,206.355c3.58,0,6.5,2.91,6.5,6.5c0,3.58-2.92,6.5-6.5,6.5h-12     c-8.55,0-15.5,6.95-15.5,15.5c0,0.27-0.23,0.5-0.5,0.5h-76c-3.59,0-6.5-2.92-6.5-6.5c0-3.59,2.91-6.5,6.5-6.5h12     c8.54,0,15.5-6.96,15.5-15.5c0-0.28,0.22-0.5,0.5-0.5H400.492z" fill="#5b79ce"/><path d="M441.232,360.565c4.14,0,7.5,3.36,7.5,7.5c0,4.14-3.36,7.5-7.5,7.5c-5.53,0-7.88,1.51-11.42,3.8     c-4.28,2.76-9.6,6.2-19.55,6.2c-9.96,0-15.28-3.44-19.56-6.2c-3.54-2.29-5.88-3.8-11.41-3.8s-7.87,1.51-11.41,3.8     c-4.28,2.76-9.6,6.2-19.56,6.2c-9.95,0-15.27-3.44-19.55-6.2c-3.54-2.29-5.88-3.8-11.41-3.8s-7.87,1.51-11.41,3.8     c-4.28,2.76-9.6,6.2-19.55,6.2c-9.95,0-15.28-3.44-19.55-6.2c-3.55-2.29-5.89-3.8-11.42-3.8c-5.52,0-7.86,1.51-11.41,3.8     c-4.27,2.76-9.59,6.2-19.55,6.2c-9.95,0-15.27-3.44-19.54-6.2c-3.55-2.29-5.89-3.8-11.41-3.8c-5.53,0-7.87,1.51-11.42,3.8     c-4.27,2.76-9.6,6.2-19.55,6.2s-15.27-3.44-19.55-6.2c-3.54-2.29-5.88-3.8-11.41-3.8c-5.53,0-7.87,1.51-11.41,3.8     c-4.28,2.76-9.6,6.2-19.55,6.2s-15.27-3.44-19.55-6.2c-3.54-2.29-5.88-3.8-11.41-3.8s-7.87,1.51-11.41,3.8     c-4.28,2.76-9.6,6.2-19.55,6.2s-15.27-3.44-19.55-6.2c-3.54-2.29-5.88-3.8-11.41-3.8c-4.14,0-7.5-3.36-7.5-7.5     c0-4.14,3.36-7.5,7.5-7.5c9.95,0,15.27,3.44,19.55,6.2c3.54,2.29,5.88,3.8,11.41,3.8s7.87-1.51,11.41-3.8     c4.27-2.76,9.6-6.2,19.55-6.2s15.27,3.44,19.55,6.2c3.3,2.13,5.56,3.59,10.32,3.78c20.37-24.87,47.05-42.7,76.88-51.94     c4.95-61.07-13.43-108.8-23.4-129.59c-0.97,1.02-1.76,1.65-2.24,1.98c-1.27,0.89-2.77,1.36-4.29,1.36c-0.45,0-0.9-0.04-1.34-0.12     c-15.57-2.83-27.07-13.68-33.73-21.82l-29.81,43.37c-1.2,1.76-3.11,2.92-5.23,3.19c-0.31,0.04-0.63,0.06-0.95,0.06     c-1.79,0-3.54-0.64-4.91-1.84c-14.5-12.58-22.9-42.82-19.55-70.33c2.48-20.36,11.06-35.27,24.18-41.98     c2.53-1.29,5.11-2.34,7.74-3.17c8.92-20.96,29.57-34.78,52.62-34.78c7.07,0,13.92,1.28,20.43,3.78c2.42-1.32,4.98-2.45,7.67-3.37     c13.94-4.78,30.63-0.6,46.99,11.76c22.12,16.7,38.03,43.75,37.02,62.92c-0.11,2.13-1.13,4.12-2.8,5.46     c-1.34,1.07-3,1.64-4.69,1.64c-0.41,0-0.83-0.03-1.24-0.1l-72.55-12.15c0.01,1.59-0.01,3.13-0.04,4.63     c40.8,48.15,63.92,108.86,65.58,172.03c45.94,2.06,88.28,23.26,117.55,59c4.75-0.19,7.01-1.64,10.31-3.77     c4.27-2.76,9.6-6.2,19.55-6.2c9.95,0,15.28,3.44,19.55,6.2c3.55,2.29,5.89,3.8,11.42,3.8s7.87-1.51,11.41-3.8     C425.952,364.005,431.272,360.565,441.232,360.565z M317.362,360.565c0.45,0,0.87,0.01,1.3,0.03     c-26.13-22.02-59.17-34.24-94.17-34.24s-68.04,12.22-94.17,34.24c0.42-0.02,0.83-0.03,1.27-0.03c9.95,0,15.27,3.44,19.55,6.2     c3.54,2.29,5.88,3.8,11.41,3.8s7.87-1.51,11.41-3.8c4.28-2.76,9.6-6.2,19.56-6.2c9.95,0,15.27,3.44,19.54,6.2     c3.55,2.29,5.89,3.8,11.41,3.8c5.53,0,7.87-1.51,11.41-3.8c4.28-2.76,9.6-6.2,19.55-6.2c9.96,0,15.28,3.44,19.56,6.2     c3.54,2.29,5.88,3.8,11.41,3.8s7.87-1.51,11.41-3.8C302.092,364.005,307.412,360.565,317.362,360.565z M143.362,115.825     l88.25,14.77c-3.54-13.56-15.48-30.52-30.05-41.52c-7.1-5.36-20.85-13.73-33.09-9.54     C149.202,86.125,144.502,105.775,143.362,115.825z M216.872,311.545c-1.51-54.5-19.9-107.07-52.46-150.4     c-0.78,4.54-1.74,8.44-2.79,11.77c7.6,13.48,34.77,67.4,30.12,141.75C199.962,312.975,208.352,311.935,216.872,311.545z      M143.762,176.425c2.88-4.71,7.99-16.97,7.56-44.06l-12.34-2.07l-18.63,27.12C124.252,162.865,132.532,172.695,143.762,176.425z      M141.792,80.405c-2.06-0.31-4.16-0.47-6.28-0.47c-13.89,0-26.6,6.8-34.38,17.72c6.71,0.54,13.53,2.43,20.35,5.7     c2.93,1.41,5.6,2.95,7.97,4.48c0.54-2.76,1.29-5.76,2.31-8.85C134.142,91.815,137.522,85.595,141.792,80.405z M74.862,197.135     l50.66-73.73c-2.7-2.07-6.45-4.61-10.92-6.71c-5.95-2.8-11.75-4.21-17.34-4.21c-5.28,0-10.39,1.26-15.28,3.76     c-11.52,5.89-15.05,21.6-16.12,30.44C63.652,164.795,67.562,185.175,74.862,197.135z" fill="#4d4d4d"/><path d="M400.492,191.355c11.85,0,21.5,9.64,21.5,21.5c0,11.85-9.65,21.5-21.5,21.5h-12     c-0.28,0-0.5,0.22-0.5,0.5c0,8.54-6.96,15.5-15.5,15.5h-76c-11.76,0-21.34-9.5-21.49-21.23c-13.06-9.69-20.74-24.78-20.74-41.27     c0-28.4,23.1-51.5,51.5-51.5c28.39,0,51.5,23.1,51.5,51.5c0,1.17-0.05,2.33-0.13,3.5H400.492z M406.992,212.855     c0-3.59-2.92-6.5-6.5-6.5h-76c-0.28,0-0.5,0.22-0.5,0.5c0,8.54-6.96,15.5-15.5,15.5h-12c-3.59,0-6.5,2.91-6.5,6.5     c0,3.58,2.91,6.5,6.5,6.5h76c0.27,0,0.5-0.23,0.5-0.5c0-8.55,6.95-15.5,15.5-15.5h12     C404.072,219.355,406.992,216.435,406.992,212.855z M342.072,191.355c0.11-1.16,0.19-2.33,0.19-3.5c0-20.13-16.38-36.5-36.5-36.5     c-20.13,0-36.5,16.37-36.5,36.5c0,10.22,4.16,19.68,11.4,26.49c3.93-4.28,9.56-6.99,15.83-6.99h12c0.27,0,0.5-0.23,0.5-0.5     c0-8.55,6.95-15.5,15.5-15.5H342.072z" fill="#4d4d4d"/><path d="M318.662,360.595c-0.43-0.02-0.85-0.03-1.3-0.03c-9.95,0-15.27,3.44-19.55,6.2     c-3.54,2.29-5.88,3.8-11.41,3.8s-7.87-1.51-11.41-3.8c-4.28-2.76-9.6-6.2-19.56-6.2c-9.95,0-15.27,3.44-19.55,6.2     c-3.54,2.29-5.88,3.8-11.41,3.8c-5.52,0-7.86-1.51-11.41-3.8c-4.27-2.76-9.59-6.2-19.54-6.2c-9.96,0-15.28,3.44-19.56,6.2     c-3.54,2.29-5.88,3.8-11.41,3.8s-7.87-1.51-11.41-3.8c-4.28-2.76-9.6-6.2-19.55-6.2c-0.44,0-0.85,0.01-1.27,0.03     c26.13-22.02,59.17-34.24,94.17-34.24S292.532,338.575,318.662,360.595z" fill="#e5d665"/><path d="M231.612,130.595l-88.25-14.77c1.14-10.05,5.84-29.7,25.11-36.29     c12.24-4.19,25.99,4.18,33.09,9.54C216.132,100.075,228.072,117.035,231.612,130.595z" fill="#77ce6f"/><path d="M164.412,161.145c32.56,43.33,50.95,95.9,52.46,150.4c-8.52,0.39-16.91,1.43-25.13,3.12     c4.65-74.35-22.52-128.27-30.12-141.75C162.672,169.585,163.632,165.685,164.412,161.145z" fill="#e0974f"/><path d="M151.322,132.365c0.43,27.09-4.68,39.35-7.56,44.06c-11.23-3.73-19.51-13.56-23.41-19.01     l18.63-27.12L151.322,132.365z" fill="#77ce6f"/><path d="M135.512,79.935c2.12,0,4.22,0.16,6.28,0.47c-4.27,5.19-7.65,11.41-10.03,18.58     c-1.02,3.09-1.77,6.09-2.31,8.85c-2.37-1.53-5.04-3.07-7.97-4.48c-6.82-3.27-13.64-5.16-20.35-5.7     C108.912,86.735,121.622,79.935,135.512,79.935z" fill="#6bb763"/><path d="M125.522,123.405l-50.66,73.73c-7.3-11.96-11.21-32.34-9-50.45c1.07-8.84,4.6-24.55,16.12-30.44     c4.89-2.5,10-3.76,15.28-3.76c5.59,0,11.39,1.41,17.34,4.21C119.072,118.795,122.822,121.335,125.522,123.405z" fill="#77ce6f"/></g></defs><g fi:class="KUsePattern"><pattern id="pattern_L1_48" width="350" height="350" patternUnits="userSpaceOnUse"><use xlink:href="#L1_48" x="-350" y="-350"/><use xlink:href="#L1_48" x="0" y="-350"/><use xlink:href="#L1_48" x="350" y="-350"/><use xlink:href="#L1_48" x="-350" y="0"/><use xlink:href="#L1_48" x="0" y="0"/><use xlink:href="#L1_48" x="350" y="0"/><use xlink:href="#L1_48" x="-350" y="350"/><use xlink:href="#L1_48" x="0" y="350"/><use xlink:href="#L1_48" x="350" y="350"/></pattern><rect x="0" y="0" width="100%" height="100%" fill="url(#pattern_L1_48)"/></g><g fi:class="KUsePattern"><pattern id="pattern_L1_50" width="350" height="350" patternUnits="userSpaceOnUse"><use xlink:href="#L1_50" x="-350" y="-350"/><use xlink:href="#L1_50" x="0" y="-350"/><use xlink:href="#L1_50" x="350" y="-350"/><use xlink:href="#L1_50" x="-350" y="0"/><use xlink:href="#L1_50" x="0" y="0"/><use xlink:href="#L1_50" x="350" y="0"/><use xlink:href="#L1_50" x="-350" y="350"/><use xlink:href="#L1_50" x="0" y="350"/><use xlink:href="#L1_50" x="350" y="350"/></pattern><rect x="0" y="0" width="100%" height="100%" fill="url(#pattern_L1_50)"/></g><g fi:class="KUsePattern"><pattern id="pattern_L1_52" width="350" height="350" patternUnits="userSpaceOnUse"><use xlink:href="#L1_52" x="-350" y="-350"/><use xlink:href="#L1_52" x="0" y="-350"/><use xlink:href="#L1_52" x="350" y="-350"/><use xlink:href="#L1_52" x="-350" y="0"/><use xlink:href="#L1_52" x="0" y="0"/><use xlink:href="#L1_52" x="350" y="0"/><use xlink:href="#L1_52" x="-350" y="350"/><use xlink:href="#L1_52" x="0" y="350"/><use xlink:href="#L1_52" x="350" y="350"/></pattern><rect x="0" y="0" width="100%" height="100%" fill="url(#pattern_L1_52)"/></g><g fi:class="KUsePattern"><pattern id="pattern_L1_54" width="350" height="350" patternUnits="userSpaceOnUse"><use xlink:href="#L1_54" x="-350" y="-350"/><use xlink:href="#L1_54" x="0" y="-350"/><use xlink:href="#L1_54" x="350" y="-350"/><use xlink:href="#L1_54" x="-350" y="0"/><use xlink:href="#L1_54" x="0" y="0"/><use xlink:href="#L1_54" x="350" y="0"/><use xlink:href="#L1_54" x="-350" y="350"/><use xlink:href="#L1_54" x="0" y="350"/><use xlink:href="#L1_54" x="350" y="350"/></pattern><rect x="0" y="0" width="100%" height="100%" fill="url(#pattern_L1_54)"/></g><g fi:class="KUsePattern"><pattern id="pattern_L1_38" width="350" height="350" patternUnits="userSpaceOnUse"><use xlink:href="#L1_38" x="-350" y="-350"/><use xlink:href="#L1_38" x="0" y="-350"/><use xlink:href="#L1_38" x="350" y="-350"/><use xlink:href="#L1_38" x="-350" y="0"/><use xlink:href="#L1_38" x="0" y="0"/><use xlink:href="#L1_38" x="350" y="0"/><use xlink:href="#L1_38" x="-350" y="350"/><use xlink:href="#L1_38" x="0" y="350"/><use xlink:href="#L1_38" x="350" y="350"/></pattern><rect x="0" y="0" width="100%" height="100%" fill="url(#pattern_L1_38)"/></g></svg>