<svg xmlns="http://www.w3.org/2000/svg" xmlns:xlink="http://www.w3.org/1999/xlink" xmlns:fi="http://pattern.flaticon.com/" x="0" y="0" width="2160" height="1080" viewBox="0 0 2520 1260"><rect x="0px" y="0px" width="100%" height="100%" opacity="1" fill="#ffffff"/><defs><g transform="matrix(0.1171872690320015 0 0 0.1171872690320015 290.000004119865 11)" id="L1_3"><path d="M502.001,438c-5.52,0-10,4.48-10,10c0,5.52,4.48,10,10,10c5.52,0,10-4.48,10-10C512,442.48,507.521,438,502.001,438z"/><path d="M256.001,0c-5.52,0-10,4.48-10,10s4.48,10,10,10s10-4.48,10-10S261.521,0,256.001,0z"/><path d="M10.001,438c-5.52,0-10,4.48-10,10c0,5.52,4.48,10,10,10s10-4.48,10-10C20.001,442.48,15.521,438,10.001,438z"/><path d="M467.537,419.48l-41.536-25.529V198.65c0-3.74-2.087-7.168-5.41-8.885l-154.59-79.855V50c0-5.523-4.478-10-10-10    c-5.522,0-10,4.477-10,10v59.91L91.412,189.765c-3.324,1.717-5.411,5.145-5.411,8.885v195.301l-41.536,25.53    c-4.705,2.892-6.175,9.051-3.283,13.756c1.889,3.072,5.169,4.765,8.529,4.765c1.786,0,3.594-0.479,5.227-1.482l41.099-25.261    l154.565,99.159c1.645,1.055,3.522,1.583,5.399,1.583c1.884,0,3.767-0.531,5.416-1.594l154.547-99.148l41.1,25.261    c1.633,1.004,3.44,1.482,5.227,1.482c3.359,0,6.641-1.693,8.529-4.765C473.712,428.531,472.242,422.373,467.537,419.48z     M246.001,483.704l-131.047-84.072l94.824-58.282c4.704-2.892,6.175-9.051,3.283-13.756c-2.892-4.706-9.052-6.174-13.756-3.283    l-93.304,57.347v-163.86l140,83.869V483.704z M256.001,284.343l-140.807-84.352l130.807-67.57V236c0,5.523,4.478,10,10,10    c5.522,0,10-4.477,10-10V132.421l130.807,67.57L256.001,284.343z M406.001,381.658l-93.304-57.348    c-4.703-2.892-10.862-1.421-13.756,3.283c-2.892,4.705-1.422,10.864,3.283,13.756l94.824,58.282l-131.047,84.072V301.666    l140-83.869V381.658z"/></g><path d="M10.033,33.023c-0.087,0-0.174-0.022-0.252-0.068c-0.209-0.122-0.301-0.375-0.218-0.603l5.223-14.359l-6.313-1.801   c-0.163-0.046-0.292-0.172-0.342-0.334c-0.049-0.162-0.014-0.339,0.096-0.469L21.032,0.177c0.152-0.181,0.41-0.228,0.618-0.119   c0.208,0.111,0.311,0.354,0.245,0.58l-3.692,12.807l6.347,1.811c0.164,0.046,0.293,0.173,0.342,0.336   c0.05,0.163,0.012,0.341-0.099,0.47l-14.38,16.787C10.315,32.962,10.175,33.023,10.033,33.023z M9.489,15.442l6.087,1.735   c0.134,0.038,0.245,0.13,0.309,0.253c0.063,0.124,0.072,0.268,0.024,0.398l-4.466,12.278l12.083-14.105l-6.079-1.733   c-0.128-0.036-0.236-0.122-0.301-0.238s-0.08-0.253-0.043-0.381l3.18-11.029L9.489,15.442z" transform="matrix(1.816915512084961 0 0 1.816915512084961 211.00000632105616 13)" id="L1_4"/><path d="M75.067,2.72c-1.275,0.037-2.487,0.56-3.389,1.461l-15,15c-1.975,1.93-2.012,5.096-0.082,7.071   c1.93,1.975,5.096,2.012,7.071,0.082c0.028-0.027,0.056-0.055,0.083-0.083l6.463-6.463v42.928h-10   c-2.761-0.039-5.032,2.168-5.071,4.929s2.168,5.032,4.929,5.071c0.047,0.001,0.094,0.001,0.141,0h14.182   c0.535,0.088,1.08,0.088,1.615,0h9.203c2.761,0.039,5.032-2.168,5.071-4.929s-2.168-5.032-4.929-5.071   c-0.047-0.001-0.094-0.001-0.141,0h-5v-55c-0.001-2.762-2.241-4.999-5.003-4.998C75.163,2.718,75.115,2.719,75.067,2.72z    M130.21,2.72c-1.275,0.037-2.487,0.56-3.389,1.461l-15,15c-1.992,1.913-2.057,5.078-0.144,7.07s5.078,2.057,7.07,0.144   c0.049-0.047,0.097-0.095,0.144-0.144l6.465-6.465v42.93h-10c-2.761-0.039-5.032,2.168-5.071,4.929   c-0.039,2.761,2.168,5.032,4.929,5.071c0.047,0.001,0.094,0.001,0.141,0h14.182c0.537,0.088,1.084,0.088,1.621,0h9.197   c2.761,0.039,5.032-2.168,5.071-4.929c0.039-2.761-2.168-5.032-4.929-5.071c-0.047-0.001-0.094-0.001-0.141,0h-5v-55   c-0.001-2.762-2.241-4.999-5.003-4.998C130.306,2.718,130.258,2.719,130.21,2.72z M17.571,2.754c-9.609,0-17.5,7.891-17.5,17.5v35   c0,9.609,7.891,17.5,17.5,17.5s17.5-7.891,17.5-17.5v-35C35.071,10.645,27.18,2.754,17.571,2.754z M182.999,2.754   c-9.609,0-17.5,7.891-17.5,17.5v35c0,9.609,7.891,17.5,17.5,17.5s17.5-7.891,17.5-17.5v-35   C200.499,10.645,192.607,2.754,182.999,2.754z M238.142,2.754c-9.609,0-17.5,7.891-17.5,17.5v35c0,9.609,7.891,17.5,17.5,17.5   c9.609,0,17.5-7.891,17.5-17.5v-35C255.642,10.645,247.75,2.754,238.142,2.754z M17.571,12.754c4.241,0,7.5,3.259,7.5,7.5v35   c0,4.241-3.259,7.5-7.5,7.5s-7.5-3.259-7.5-7.5v-35C10.071,16.012,13.33,12.754,17.571,12.754z M182.999,12.754   c4.241,0,7.5,3.259,7.5,7.5v35c0,4.241-3.259,7.5-7.5,7.5s-7.5-3.259-7.5-7.5v-35C175.499,16.012,178.757,12.754,182.999,12.754z    M238.142,12.754c4.241,0,7.5,3.259,7.5,7.5v35c0,4.241-3.259,7.5-7.5,7.5s-7.5-3.259-7.5-7.5v-35   C230.642,16.012,233.9,12.754,238.142,12.754z M19.925,92.791c-1.275,0.037-2.487,0.56-3.389,1.461l-15,15   c-1.952,1.954-1.949,5.121,0.005,7.072c1.952,1.95,5.115,1.95,7.067,0l6.463-6.463v42.928h-10   c-2.761-0.039-5.032,2.168-5.071,4.929c-0.039,2.761,2.168,5.032,4.929,5.071c0.047,0.001,0.094,0.001,0.141,0h14.182   c0.537,0.088,1.084,0.088,1.621,0h9.197c2.761,0.039,5.032-2.168,5.071-4.929c0.039-2.761-2.168-5.032-4.929-5.071   c-0.047-0.001-0.094-0.001-0.141,0h-5v-55c0-2.762-2.239-5-5.001-5C20.022,92.789,19.973,92.789,19.925,92.791z M130.21,92.791   c-1.275,0.037-2.487,0.56-3.389,1.461l-15,15c-1.976,1.93-2.013,5.095-0.084,7.071c1.93,1.976,5.095,2.013,7.071,0.084   c0.028-0.027,0.056-0.055,0.083-0.083l6.465-6.465v42.93h-10c-2.761-0.039-5.032,2.168-5.071,4.929   c-0.039,2.761,2.168,5.032,4.929,5.071c0.047,0.001,0.094,0.001,0.141,0h14.182c0.537,0.088,1.084,0.088,1.621,0h9.197   c2.761,0.039,5.032-2.168,5.071-4.929c0.039-2.761-2.168-5.032-4.929-5.071c-0.047-0.001-0.094-0.001-0.141,0h-5v-55   c0-2.762-2.239-5-5.001-5C130.307,92.789,130.258,92.789,130.21,92.791z M185.352,92.791c-1.275,0.037-2.487,0.56-3.389,1.461   l-15,15c-1.976,1.93-2.013,5.095-0.084,7.071c1.93,1.976,5.095,2.013,7.071,0.084c0.028-0.027,0.056-0.055,0.083-0.083l6.465-6.465   v42.93h-10c-2.761-0.039-5.032,2.168-5.071,4.929c-0.039,2.761,2.168,5.032,4.929,5.071c0.047,0.001,0.094,0.001,0.141,0h14.182   c0.537,0.088,1.084,0.088,1.621,0h9.197c2.761,0.039,5.032-2.168,5.071-4.929c0.039-2.761-2.168-5.032-4.929-5.071   c-0.047-0.001-0.094-0.001-0.141,0h-5v-55c0-2.762-2.239-5-5.001-5C185.45,92.789,185.401,92.789,185.352,92.791z M72.714,92.824   c-9.609,0-17.5,7.891-17.5,17.5v35c0,9.609,7.891,17.5,17.5,17.5s17.5-7.891,17.5-17.5v-35   C90.214,100.715,82.322,92.824,72.714,92.824z M238.142,92.824c-9.609,0-17.5,7.891-17.5,17.5v35c0,9.609,7.891,17.5,17.5,17.5   c9.609,0,17.5-7.891,17.5-17.5v-35C255.642,100.715,247.75,92.824,238.142,92.824z M72.714,102.824c4.241,0,7.5,3.259,7.5,7.5v35   c0,4.241-3.259,7.5-7.5,7.5s-7.5-3.259-7.5-7.5v-35C65.214,106.082,68.472,102.824,72.714,102.824z M238.142,102.824   c4.241,0,7.5,3.259,7.5,7.5v35c0,4.241-3.259,7.5-7.5,7.5s-7.5-3.259-7.5-7.5v-35C230.642,106.082,233.9,102.824,238.142,102.824z    M19.925,182.861c-1.275,0.037-2.487,0.56-3.389,1.461l-15,15c-1.953,1.953-1.953,5.119,0,7.072s5.119,1.953,7.072,0l6.463-6.463   v42.926h-10c-2.761-0.039-5.032,2.168-5.071,4.929c-0.039,2.761,2.168,5.032,4.929,5.071c0.047,0.001,0.094,0.001,0.141,0h14.182   c0.537,0.088,1.084,0.088,1.621,0h9.197c2.761,0.039,5.032-2.168,5.071-4.929c0.039-2.761-2.168-5.032-4.929-5.071   c-0.047-0.001-0.094-0.001-0.141,0h-5v-55c-0.001-2.762-2.241-4.999-5.003-4.998C20.021,182.859,19.973,182.86,19.925,182.861z    M75.067,182.861c-1.275,0.037-2.487,0.56-3.389,1.461l-15,15c-1.953,1.953-1.953,5.119,0,7.072s5.119,1.953,7.072,0l6.463-6.463   v42.926h-10c-2.761-0.039-5.032,2.168-5.071,4.929c-0.039,2.761,2.168,5.032,4.929,5.071c0.047,0.001,0.094,0.001,0.141,0h14.182   c0.535,0.088,1.08,0.088,1.615,0h9.203c2.761,0.039,5.032-2.168,5.071-4.929c0.039-2.761-2.168-5.032-4.929-5.071   c-0.047-0.001-0.094-0.001-0.141,0h-5v-55c-0.001-2.762-2.241-4.999-5.003-4.998C75.163,182.859,75.115,182.86,75.067,182.861z    M130.21,182.861c-1.275,0.037-2.487,0.56-3.389,1.461l-15,15c-1.976,1.93-2.013,5.095-0.084,7.071   c1.93,1.976,5.095,2.013,7.071,0.084c0.028-0.027,0.056-0.055,0.083-0.083l6.465-6.465v42.928h-10   c-2.761-0.039-5.032,2.168-5.071,4.929c-0.039,2.761,2.168,5.032,4.929,5.071c0.047,0.001,0.094,0.001,0.141,0h14.182   c0.537,0.088,1.084,0.088,1.621,0h9.197c2.761,0.039,5.032-2.168,5.071-4.929c0.039-2.761-2.168-5.032-4.929-5.071   c-0.047-0.001-0.094-0.001-0.141,0h-5v-55c-0.001-2.762-2.241-4.999-5.003-4.998C130.306,182.859,130.258,182.86,130.21,182.861z    M185.352,182.861c-1.275,0.037-2.487,0.56-3.389,1.461l-15,15c-1.976,1.93-2.013,5.095-0.084,7.071   c1.93,1.976,5.095,2.013,7.071,0.084c0.028-0.027,0.056-0.055,0.083-0.083l6.465-6.465v42.928h-10   c-2.761-0.039-5.032,2.168-5.071,4.929c-0.039,2.761,2.168,5.032,4.929,5.071c0.047,0.001,0.094,0.001,0.141,0h14.182   c0.537,0.088,1.084,0.088,1.621,0h9.197c2.761,0.039,5.032-2.168,5.071-4.929c0.039-2.761-2.168-5.032-4.929-5.071   c-0.047-0.001-0.094-0.001-0.141,0h-5v-55c-0.001-2.762-2.241-4.999-5.003-4.998C185.448,182.859,185.4,182.86,185.352,182.861z    M238.142,182.894c-9.609,0-17.5,7.891-17.5,17.5v35c0,9.609,7.891,17.5,17.5,17.5c9.609,0,17.5-7.891,17.5-17.5v-35   C255.642,190.786,247.75,182.894,238.142,182.894z M238.142,192.894c4.241,0,7.5,3.259,7.5,7.5v35c0,4.241-3.259,7.5-7.5,7.5   s-7.5-3.259-7.5-7.5v-35C230.642,196.153,233.9,192.894,238.142,192.894z" transform="matrix(0.2347032129764557 0 0 0.2347032129764557 30 13.999997894203261)" id="L1_6"/><path d="M501.333,245.333H266.667V192h64c5.896,0,10.667-4.771,10.667-10.667v-128c0-5.896-4.771-10.667-10.667-10.667H181.333    c-5.896,0-10.667,4.771-10.667,10.667v128c0,5.896,4.771,10.667,10.667,10.667h64v53.333H10.667C4.771,245.333,0,250.104,0,256    c0,5.896,4.771,10.667,10.667,10.667h106.667V320h-64c-5.896,0-10.667,4.771-10.667,10.667v128    c0,5.896,4.771,10.667,10.667,10.667h149.333c5.896,0,10.667-4.771,10.667-10.667v-128c0-5.896-4.771-10.667-10.667-10.667h-64    v-53.333h234.667V320h-64c-5.896,0-10.667,4.771-10.667,10.667v128c0,5.896,4.771,10.667,10.667,10.667h149.333    c5.896,0,10.667-4.771,10.667-10.667v-128c0-5.896-4.771-10.667-10.667-10.667h-64v-53.333h106.667    c5.896,0,10.667-4.771,10.667-10.667C512,250.104,507.229,245.333,501.333,245.333z M192,341.333V448H64V341.333H192z     M192,170.667V64h128v106.667H192z M448,341.333V448H320V341.333H448z" transform="matrix(0.1171875 0 0 0.1171875 122 14)" id="L1_8"/></defs><g fi:class="KUsePattern"><pattern id="pattern_L1_3" width="350" height="350" patternUnits="userSpaceOnUse"><use xlink:href="#L1_3" x="-350" y="-350"/><use xlink:href="#L1_3" x="0" y="-350"/><use xlink:href="#L1_3" x="350" y="-350"/><use xlink:href="#L1_3" x="-350" y="0"/><use xlink:href="#L1_3" x="0" y="0"/><use xlink:href="#L1_3" x="350" y="0"/><use xlink:href="#L1_3" x="-350" y="350"/><use xlink:href="#L1_3" x="0" y="350"/><use xlink:href="#L1_3" x="350" y="350"/></pattern><rect x="0" y="0" width="100%" height="100%" fill="url(#pattern_L1_3)"/></g><g fi:class="KUsePattern"><pattern id="pattern_L1_6" width="350" height="350" patternUnits="userSpaceOnUse"><use xlink:href="#L1_6" x="-350" y="-350"/><use xlink:href="#L1_6" x="0" y="-350"/><use xlink:href="#L1_6" x="350" y="-350"/><use xlink:href="#L1_6" x="-350" y="0"/><use xlink:href="#L1_6" x="0" y="0"/><use xlink:href="#L1_6" x="350" y="0"/><use xlink:href="#L1_6" x="-350" y="350"/><use xlink:href="#L1_6" x="0" y="350"/><use xlink:href="#L1_6" x="350" y="350"/></pattern><rect x="0" y="0" width="100%" height="100%" fill="url(#pattern_L1_6)"/></g><g fi:class="KUsePattern"><pattern id="pattern_L1_4" width="350" height="350" patternUnits="userSpaceOnUse"><use xlink:href="#L1_4" x="-350" y="-350"/><use xlink:href="#L1_4" x="0" y="-350"/><use xlink:href="#L1_4" x="350" y="-350"/><use xlink:href="#L1_4" x="-350" y="0"/><use xlink:href="#L1_4" x="0" y="0"/><use xlink:href="#L1_4" x="350" y="0"/><use xlink:href="#L1_4" x="-350" y="350"/><use xlink:href="#L1_4" x="0" y="350"/><use xlink:href="#L1_4" x="350" y="350"/></pattern><rect x="0" y="0" width="100%" height="100%" fill="url(#pattern_L1_4)"/></g><g fi:class="KUsePattern"><pattern id="pattern_L1_8" width="350" height="350" patternUnits="userSpaceOnUse"><use xlink:href="#L1_8" x="-350" y="-350"/><use xlink:href="#L1_8" x="0" y="-350"/><use xlink:href="#L1_8" x="350" y="-350"/><use xlink:href="#L1_8" x="-350" y="0"/><use xlink:href="#L1_8" x="0" y="0"/><use xlink:href="#L1_8" x="350" y="0"/><use xlink:href="#L1_8" x="-350" y="350"/><use xlink:href="#L1_8" x="0" y="350"/><use xlink:href="#L1_8" x="350" y="350"/></pattern><rect x="0" y="0" width="100%" height="100%" fill="url(#pattern_L1_8)"/></g></svg>