<?xml version="1.0" encoding="utf-8"?>
<!-- Generator: Adobe Illustrator 21.1.0, SVG Export Plug-In . SVG Version: 6.00 Build 0)  -->
<svg version="1.1" id="Layer_1" xmlns="http://www.w3.org/2000/svg" xmlns:xlink="http://www.w3.org/1999/xlink" x="0px" y="0px"
	 viewBox="0 0 38.3 32.5" style="enable-background:new 0 0 38.3 32.5;" xml:space="preserve">
<style type="text/css">
	.st0{fill:#FFDE17;}
</style>
<path id="v_9_" class="st0" d="M23.7,10.7c-0.8,0-1.1,0.3-1.1,1.1v3.1v1c0,1.5-0.9,2.3-2.3,2.3h-0.1v-2.8h-2.1v2.8H18
	c-1.4,0-2.3-0.9-2.3-2.3v-1v-3.1c0-0.8-0.3-1.1-1.1-1.1h-2v1.8h0.7c0.2,0,0.3,0.1,0.3,0.3v2.1v1.1c0,2.4,1.7,4.2,4.4,4.2h0.1v1.8
	h2.1v-1.8h0.1c2.6,0,4.4-1.7,4.4-4.2v-1.1v-2.1c0-0.2,0.1-0.3,0.3-0.3h0.7v-1.8H23.7z"/>
</svg>
