<svg xmlns="http://www.w3.org/2000/svg" xmlns:xlink="http://www.w3.org/1999/xlink" xmlns:fi="http://pattern.flaticon.com/" x="0" y="0" width="2160" height="1080" viewBox="0 0 2520 1260"><rect x="0px" y="0px" width="100%" height="100%" opacity="1" fill="#000000"/><defs><g transform="matrix(0.20016804337501526 0 0 0.20016804337501526 260.6515917035098 110.65535152703524)" id="L1_58"><path d="M311.358,136.395H101.779c-4.662,0-8.441,3.779-8.441,8.441v175.749   c0,4.662,3.779,8.441,8.441,8.441h37.363v59.228c0,13.742,11.14,24.883,24.883,24.883l0,0c13.742,0,24.883-11.14,24.883-24.883   v-59.228h34.803v59.228c0,13.742,11.14,24.883,24.883,24.883l0,0c13.742,0,24.883-11.14,24.883-24.883v-59.228h37.882   c4.662,0,8.441-3.779,8.441-8.441V144.836C319.799,140.174,316.02,136.395,311.358,136.395z" fill="#aac148"/><path d="M57.856,136.354L57.856,136.354c-13.742,0-24.883,11.14-24.883,24.883v101.065   c0,13.742,11.14,24.883,24.883,24.883l0,0c13.742,0,24.883-11.14,24.883-24.883V161.237   C82.738,147.495,71.598,136.354,57.856,136.354z" fill="#aac148"/><path d="M355.281,136.354L355.281,136.354c-13.742,0-24.883,11.14-24.883,24.883v101.065   c0,13.742,11.14,24.883,24.883,24.883l0,0c13.742,0,24.883-11.14,24.883-24.883V161.237   C380.164,147.495,369.024,136.354,355.281,136.354z" fill="#aac148"/><path d="M103.475,124.069h205.692c5.366,0,9.368-4.943,8.266-10.195   c-6.804-32.428-27.45-59.756-55.465-75.543l17.584-31.727c1.19-2.148,0.414-4.855-1.734-6.045   c-2.153-1.193-4.856-0.414-6.046,1.734l-17.717,31.966c-14.511-6.734-30.683-10.495-47.734-10.495   c-17.052,0-33.224,3.761-47.735,10.495L140.869,2.292c-1.191-2.149-3.898-2.924-6.045-1.734c-2.148,1.19-2.924,3.897-1.734,6.045   l17.584,31.727c-28.015,15.788-48.661,43.115-55.465,75.544C94.106,119.126,98.108,124.069,103.475,124.069z M267.697,76.786   c0,5.282-4.282,9.565-9.565,9.565c-5.282,0-9.565-4.282-9.565-9.565c0-5.282,4.282-9.565,9.565-9.565   C263.415,67.221,267.697,71.504,267.697,76.786z M154.508,67.221c5.282,0,9.565,4.282,9.565,9.565c0,5.282-4.282,9.565-9.565,9.565   c-5.282,0-9.565-4.282-9.565-9.565C144.943,71.504,149.225,67.221,154.508,67.221z" fill="#aac148"/></g><g transform="matrix(0.19773590255834889 -0.03889886679994552 0.03889886679994552 0.19773590255834889 5.421499044276629 145.33771884584874)" id="L1_60"><path d="M185.379,384v17.655h141.241V384H476.69V101.517c0-9.754-7.901-17.655-17.655-17.655H52.966   c-9.754,0-17.655,7.901-17.655,17.655V384H185.379z" fill="#38454f"/><path d="M52.966,366.345 459.034,366.345 459.034,101.517 52.966,101.517z" fill="#546a79"/><g><path d="M423.724,242.759c-4.873,0-8.828-3.955-8.828-8.828v-61.793c0-4.873,3.955-8.828,8.828-8.828    c4.873,0,8.828,3.955,8.828,8.828v61.793C432.552,238.804,428.597,242.759,423.724,242.759" fill="#ecba16"/><path d="M423.724,180.966h-61.793c-4.873,0-8.828-3.955-8.828-8.828c0-4.873,3.955-8.828,8.828-8.828    h61.793c4.873,0,8.828,3.955,8.828,8.828C432.552,177.011,428.597,180.966,423.724,180.966" fill="#ecba16"/></g><g><path d="M79.448,313.379c-4.873,0-8.828-3.955-8.828-8.828V163.31c0-4.873,3.955-8.828,8.828-8.828    c4.873,0,8.828,3.955,8.828,8.828v141.241C88.276,309.425,84.321,313.379,79.448,313.379" fill="#ea6148"/><path d="M150.069,189.793h-35.31c-4.873,0-8.828-3.955-8.828-8.828s3.955-8.828,8.828-8.828h35.31    c4.873,0,8.828,3.955,8.828,8.828S154.942,189.793,150.069,189.793" fill="#ea6148"/><path d="M132.414,225.103h-17.655c-4.873,0-8.828-3.955-8.828-8.828c0-4.873,3.955-8.828,8.828-8.828    h17.655c4.873,0,8.828,3.955,8.828,8.828C141.241,221.149,137.287,225.103,132.414,225.103" fill="#ea6148"/><path d="M150.069,260.414h-35.31c-4.873,0-8.828-3.955-8.828-8.828s3.955-8.828,8.828-8.828h35.31    c4.873,0,8.828,3.955,8.828,8.828S154.942,260.414,150.069,260.414" fill="#ea6148"/><path d="M132.414,295.724h-17.655c-4.873,0-8.828-3.955-8.828-8.828s3.955-8.828,8.828-8.828h17.655    c4.873,0,8.828,3.955,8.828,8.828S137.287,295.724,132.414,295.724" fill="#ea6148"/></g><path d="M326.621,384v17.655H185.379V384H0v26.483c0,9.754,7.901,17.655,17.655,17.655h476.69   c9.754,0,17.655-7.901,17.655-17.655V384H326.621z" fill="#b0b6bb"/><g><path d="M220.69,295.724c-2.26,0-4.52-0.865-6.241-2.586c-3.452-3.452-3.452-9.031,0-12.482l70.621-70.621    c3.452-3.452,9.031-3.452,12.482,0s3.452,9.031,0,12.482l-70.621,70.621C225.209,294.859,222.95,295.724,220.69,295.724" fill="#ecba16"/><path d="M335.448,269.241c-2.26,0-4.52-0.865-6.241-2.586l-44.138-44.138    c-3.452-3.452-3.452-9.031,0-12.482c3.452-3.452,9.031-3.452,12.482,0l44.138,44.138c3.452,3.452,3.452,9.031,0,12.482    C339.968,268.376,337.708,269.241,335.448,269.241" fill="#ecba16"/><path d="M335.448,269.241c-2.26,0-4.52-0.865-6.241-2.586c-3.452-3.452-3.452-9.031,0-12.482l88.276-88.276    c3.452-3.452,9.031-3.452,12.482,0s3.452,9.031,0,12.482l-88.276,88.276C339.968,268.376,337.708,269.241,335.448,269.241" fill="#ecba16"/></g></g><g transform="matrix(-0.16376535594463348 0 0 0.16376535594463348 134.92393112182617 53.07606887817383)" id="L1_65"><path d="M489.798,239.613c-16.627-10.241-70.258-23.335-145.52-23.335l-39.756-46.38  c-8.385-9.782-20.627-15.413-33.511-15.413H152.008c-12.644,0-24.87,4.523-34.47,12.751L70.624,207.45l-50.039,7.148  c-7.106,1.015-12.889,6.231-14.63,13.195l-5.95,23.794l132.415,61.792h370.755v-49.903  C503.173,253.717,498.107,244.732,489.798,239.613z" fill="#ecba16"/><path d="M503.173,269.241c0-17.655-26.482-35.31-150.067-35.31H8.831c-4.875,0-8.827,3.953-8.827,8.827  v52.965l167.725,26.482h335.445V269.241z" fill="#ecba16"/><path d="M503.173,304.551H89.244l-78.5-17.443c-4.715-1.035-9.474,1.935-10.535,6.702  c-1.052,4.759,1.949,9.474,6.707,10.53l79.447,17.655c0.629,0.142,1.267,0.211,1.913,0.211h414.894c4.879,0,8.828-3.953,8.828-8.827  C511.999,308.504,508.052,304.551,503.173,304.551z" fill="#ecba16"/><circle cx="423" cy="304" r="44" fill="#ededee"/><path d="M423.725,357.516c-29.207,0-52.965-23.758-52.965-52.965c0-29.207,23.758-52.965,52.965-52.965  s52.965,23.758,52.965,52.965C476.69,333.758,452.932,357.516,423.725,357.516z M423.725,269.241  c-19.473,0-35.31,15.837-35.31,35.31c0,19.473,15.837,35.31,35.31,35.31s35.31-15.836,35.31-35.31  C459.035,285.078,443.199,269.241,423.725,269.241z" fill="#504b5a"/><circle cx="423" cy="304" r="17" fill="#dcdbde"/><circle cx="88" cy="304" r="44" fill="#ededee"/><path d="M88.279,357.516c-29.207,0-52.965-23.758-52.965-52.965c0-29.207,23.758-52.965,52.965-52.965  s52.965,23.758,52.965,52.965C141.243,333.758,117.485,357.516,88.279,357.516z M88.279,269.241c-19.473,0-35.31,15.837-35.31,35.31  c0,19.473,15.837,35.31,35.31,35.31s35.31-15.836,35.31-35.31C123.589,285.078,107.752,269.241,88.279,269.241z" fill="#504b5a"/><circle cx="88" cy="304" r="17" fill="#dcdbde"/><g><path d="M353.105,286.896H167.728c-4.875,0-8.827-3.953-8.827-8.827l0,0c0-4.875,3.953-8.827,8.827-8.827   h185.377c4.875,0,8.827,3.952,8.827,8.827l0,0C361.933,282.945,357.98,286.896,353.105,286.896z" fill="#ecba16"/><path d="M503.173,286.896h-8.827c-4.875,0-8.828-3.953-8.828-8.827l0,0c0-4.875,3.953-8.827,8.828-8.827   h8.827c4.875,0,8.827,3.952,8.827,8.827l0,0C512,282.945,508.048,286.896,503.173,286.896z" fill="#ecba16"/></g><path d="M70.624,207.449l46.914-40.214c9.6-8.228,21.826-12.751,34.47-12.751h119.003  c12.885,0,25.125,5.63,33.511,15.413l39.756,46.38H135.276c-7.78,0-15.546-0.643-23.221-1.922L70.624,207.449z" fill="#ecba16"/><path d="M261.294,169.664c-3.354-4.025-8.323-6.352-13.563-6.352h-81.524c-4.682,0-9.173,1.86-12.483,5.171  l-26.482,26.482c-2.341,2.341-3.657,5.516-3.657,8.827l0,0c0,6.894,5.589,12.484,12.484,12.484h154.647  c3.742,0,5.786-4.365,3.391-7.24L261.294,169.664z" fill="#625d6b"/><path d="M185.381,216.276 158.898,216.276 176.553,163.312 194.208,163.312z" fill="#504b5a"/><path d="M493.697,242.759h-8.181c-4.875,0-8.827,3.952-8.827,8.827s3.953,8.827,8.827,8.827h17.261  C502.011,253.548,498.814,247.337,493.697,242.759z" fill="#ededee"/><path d="M304.522,169.897c-2.115-2.468-4.48-4.669-7.036-6.585H283.08c-3.742,0-5.786,4.364-3.391,7.24  l32.813,39.374c3.354,4.025,8.323,6.352,13.562,6.352h18.213L304.522,169.897z" fill="#625d6b"/><path d="M0.004,242.759v8.827h17.655c4.875,0,8.827-3.952,8.827-8.827s-3.953-8.827-8.827-8.827H8.831  C3.955,233.931,0.004,237.884,0.004,242.759z" fill="#ecba16"/></g><g transform="matrix(0.17859672009944916 0 0 0.17859672009944916 -6.689119152724743 30.280664875259163)" id="L1_66"><path d="M484.985,205.994l-67.998-52.999l-86.997-35.999l-68.998-10h-38.999l-128.996,33l-77.998,81.341  c0,0,0,207.65,0,212.649l485.984,4.672V227.993L484.985,205.994z" fill="#504b5a"/><rect x="86px" y="289px" width="336px" height="149px" fill="#4caf50"/><rect x="139px" y="178px" width="231px" height="43px" fill="#4caf50"/><path d="M460.986,140.996l-59.498-33.999L298.491,78.498l-59.998-6l-59.999,9l-81.998,25.5l-61.998,51.499  l-19.499,32.999l3,25.5l73.498-66.498l52.998-21.5l69.498-15.5l79.498-1l77.169,12c0,0,50.983,32.874,52.655,33.437  s74.669,56.061,74.669,56.061l3-25.999L460.986,140.996z" fill="#656d78"/><path d="M497.297,167.667c-7.64-11.265-21.529-28.296-44.186-45.499c-34.999-26.546-97.591-58.17-197.119-58.17  c-99.536,0-162.127,31.625-197.111,58.17C18.273,152.98,0,187.775,0,202.65v42.686v149.308v42.686  c0,5.875,4.773,10.656,10.664,10.656h74.669h170.659l0,0h170.651h74.685c5.875,0,10.656-4.781,10.656-10.656v-42.686V245.336V202.65  C511.984,194.15,506.64,181.401,497.297,167.667z M71.779,139.152c32.366-24.546,90.607-53.811,184.213-53.811  c93.607,0,151.84,29.265,184.213,53.811c30.219,22.937,44.343,46.342,48.812,57.545c-8.141-10.796-19.718-23.796-35.562-36.921  c-35.155-29.093-97.966-63.779-197.463-63.779c-99.504,0-162.299,34.687-197.462,63.779c-15.851,13.125-27.413,26.125-35.554,36.921  C27.437,185.494,41.554,162.089,71.779,139.152z M245.328,426.643H95.997V298.647h149.332v127.996H245.328z M266.656,426.643  V298.647h149.331v127.996H266.656z M490.641,426.643h-53.312V287.991c0-5.89-4.781-10.655-10.687-10.655h-170.65l0,0H85.333  c-5.89,0-10.671,4.766-10.671,10.655v138.652H21.335V245.336c0-5.75,12.703-37.593,50.795-69.123  c32.46-26.874,90.708-58.873,183.861-58.873c93.154,0,151.402,31.999,183.869,58.873c38.094,31.53,50.78,63.373,50.78,69.123  v181.307H490.641z"/><path d="M117.332,373.332h106.661c5.891,0,10.664-4.781,10.664-10.687c0-5.875-4.773-10.656-10.664-10.656H117.332  c-5.89,0-10.671,4.781-10.671,10.656C106.661,368.551,111.442,373.332,117.332,373.332z"/><path d="M117.332,341.334h106.661c5.891,0,10.664-4.781,10.664-10.688c0-5.875-4.773-10.656-10.664-10.656H117.332  c-5.89,0-10.671,4.781-10.671,10.656C106.661,336.553,111.442,341.334,117.332,341.334z"/><path d="M117.332,405.332h106.661c5.891,0,10.664-4.781,10.664-10.688c0-5.875-4.773-10.656-10.664-10.656H117.332  c-5.89,0-10.671,4.781-10.671,10.656C106.661,400.551,111.442,405.332,117.332,405.332z"/><path d="M394.644,351.989H287.991c-5.89,0-10.655,4.781-10.655,10.656c0,5.905,4.766,10.687,10.655,10.687h106.653  c5.906,0,10.688-4.781,10.688-10.687C405.332,356.77,400.551,351.989,394.644,351.989z"/><path d="M394.644,319.99H287.991c-5.89,0-10.655,4.781-10.655,10.656c0,5.906,4.766,10.688,10.655,10.688h106.653  c5.906,0,10.688-4.781,10.688-10.688C405.332,324.771,400.551,319.99,394.644,319.99z"/><path d="M394.644,383.988H287.991c-5.89,0-10.655,4.781-10.655,10.656c0,5.906,4.766,10.688,10.655,10.688h106.653  c5.906,0,10.688-4.781,10.688-10.688C405.332,388.769,400.551,383.988,394.644,383.988z"/><path d="M373.332,170.651H138.66c-5.891,0-10.664,4.781-10.664,10.687v42.655c0,5.891,4.773,10.656,10.664,10.656h234.672  c5.875,0,10.656-4.766,10.656-10.656v-42.655C383.988,175.432,379.207,170.651,373.332,170.651z M149.331,191.994h95.997v21.343  h-95.997L149.331,191.994L149.331,191.994z M362.645,213.337h-95.989v-21.343h95.989V213.337z"/></g><g transform="matrix(0.11238211393356323 0 0 0.11238211393356323 36.23017883300781 53.23017883300781)" id="L1_67"><path d="M54.211,249.7c0,0,20.228,29.717,62.624,54.871c0,0-30.705-259.502,169.358-304.571  c-51.257,188.121,65.2,241.174,107.651,141.786c70.893,94.651,17.066,177.229,17.066,177.229  c29.069,4.188,53.487-27.57,53.487-27.57c0.218,3.912,0.34,7.851,0.34,11.818C464.738,418.545,371.283,512,256,512  S47.262,418.545,47.262,303.262C47.262,284.744,49.686,266.794,54.211,249.7z" fill="#ff6536"/><path d="M464.398,291.445c0,0-24.418,31.758-53.487,27.57c0,0,53.827-82.578-17.066-177.229  C351.394,241.174,234.937,188.121,286.194,0C275.479,2.414,265.431,5.447,256,9.018V512c115.283,0,208.738-93.455,208.738-208.738  C464.738,299.295,464.616,295.357,464.398,291.445z" fill="#ff421d"/><path d="M164.456,420.456C164.456,471.014,205.442,512,256,512s91.544-40.986,91.544-91.544  c0-27.061-11.741-51.379-30.408-68.138c-35.394,48.085-85.832-24.856-46.524-78.122  C270.612,274.196,164.456,287.499,164.456,420.456z" fill="#fbbf00"/><path d="M347.544,420.456c0-27.061-11.741-51.379-30.408-68.138c-35.394,48.085-85.832-24.856-46.524-78.122  c0,0-5.768,0.725-14.612,3.516V512C306.558,512,347.544,471.014,347.544,420.456z" fill="#ffa900"/></g></defs><g fi:class="KUsePattern"><pattern id="pattern_L1_58" width="350" height="350" patternUnits="userSpaceOnUse"><use xlink:href="#L1_58" x="-350" y="-350"/><use xlink:href="#L1_58" x="0" y="-350"/><use xlink:href="#L1_58" x="350" y="-350"/><use xlink:href="#L1_58" x="-350" y="0"/><use xlink:href="#L1_58" x="0" y="0"/><use xlink:href="#L1_58" x="350" y="0"/><use xlink:href="#L1_58" x="-350" y="350"/><use xlink:href="#L1_58" x="0" y="350"/><use xlink:href="#L1_58" x="350" y="350"/></pattern><rect x="0" y="0" width="100%" height="100%" fill="url(#pattern_L1_58)"/></g><g fi:class="KUsePattern"><pattern id="pattern_L1_60" width="350" height="350" patternUnits="userSpaceOnUse"><use xlink:href="#L1_60" x="-350" y="-350"/><use xlink:href="#L1_60" x="0" y="-350"/><use xlink:href="#L1_60" x="350" y="-350"/><use xlink:href="#L1_60" x="-350" y="0"/><use xlink:href="#L1_60" x="0" y="0"/><use xlink:href="#L1_60" x="350" y="0"/><use xlink:href="#L1_60" x="-350" y="350"/><use xlink:href="#L1_60" x="0" y="350"/><use xlink:href="#L1_60" x="350" y="350"/></pattern><rect x="0" y="0" width="100%" height="100%" fill="url(#pattern_L1_60)"/></g><g fi:class="KUsePattern"><pattern id="pattern_L1_66" width="350" height="350" patternUnits="userSpaceOnUse"><use xlink:href="#L1_66" x="-350" y="-350"/><use xlink:href="#L1_66" x="0" y="-350"/><use xlink:href="#L1_66" x="350" y="-350"/><use xlink:href="#L1_66" x="-350" y="0"/><use xlink:href="#L1_66" x="0" y="0"/><use xlink:href="#L1_66" x="350" y="0"/><use xlink:href="#L1_66" x="-350" y="350"/><use xlink:href="#L1_66" x="0" y="350"/><use xlink:href="#L1_66" x="350" y="350"/></pattern><rect x="0" y="0" width="100%" height="100%" fill="url(#pattern_L1_66)"/></g><g fi:class="KUsePattern"><pattern id="pattern_L1_65" width="350" height="350" patternUnits="userSpaceOnUse"><use xlink:href="#L1_65" x="-350" y="-350"/><use xlink:href="#L1_65" x="0" y="-350"/><use xlink:href="#L1_65" x="350" y="-350"/><use xlink:href="#L1_65" x="-350" y="0"/><use xlink:href="#L1_65" x="0" y="0"/><use xlink:href="#L1_65" x="350" y="0"/><use xlink:href="#L1_65" x="-350" y="350"/><use xlink:href="#L1_65" x="0" y="350"/><use xlink:href="#L1_65" x="350" y="350"/></pattern><rect x="0" y="0" width="100%" height="100%" fill="url(#pattern_L1_65)"/></g><g fi:class="KUsePattern"><pattern id="pattern_L1_67" width="350" height="350" patternUnits="userSpaceOnUse"><use xlink:href="#L1_67" x="-350" y="-350"/><use xlink:href="#L1_67" x="0" y="-350"/><use xlink:href="#L1_67" x="350" y="-350"/><use xlink:href="#L1_67" x="-350" y="0"/><use xlink:href="#L1_67" x="0" y="0"/><use xlink:href="#L1_67" x="350" y="0"/><use xlink:href="#L1_67" x="-350" y="350"/><use xlink:href="#L1_67" x="0" y="350"/><use xlink:href="#L1_67" x="350" y="350"/></pattern><rect x="0" y="0" width="100%" height="100%" fill="url(#pattern_L1_67)"/></g></svg>