<svg xmlns="http://www.w3.org/2000/svg" xmlns:xlink="http://www.w3.org/1999/xlink" xmlns:fi="http://pattern.flaticon.com/" x="0" y="0" width="2160" height="1080" viewBox="0 0 2520 1260"><rect x="0px" y="0px" width="100%" height="100%" opacity="1" fill="#fab50d"/><defs><g transform="matrix(-0.16116175055503845 0 0 0.16116175055503845 210.92953980714083 60.12246142492694)" id="L1_9"><path d="M274.737,251.664c0,0-1.873,26.259-12.261,48.226l-24.988,27.345   c-3.665,4.011-8.37,6.916-13.592,8.414c-14.416,4.136-43.965,14.044-46.428,26.363l11.443,35.148h20.435l4.904,17.165h-39.235   l-24.522-54.765l38.417-42.504l-10.626-20.435c0,0-3.27-34.33,1.635-53.13" fill="#9fa396"/><path d="M376.195,69.858c0,0-72.854-36.011-135.539-20.37c-9.276,2.314-17.184,8.631-20.999,17.397   c-0.496,1.14-0.923,2.317-1.248,3.516c-2.617,9.595,21.781,12.051,28.378,3.682s16.195-22.19,50.188-0.703   c6.905,4.367,10.38,11.1,11.537,19.066" fill="#ba8e88"/><path d="M459.753,145.627l-1.149,11.392c-10.826,9.588-26.925,14.541-26.925,14.541   c-20.144-19.188-60.102-19.237-60.507-19.237l-23.516,13.242c0,0-4.034,45.426-31.29,92.287   c-5.665,9.723-12.334,19.519-20.169,28.972c-0.785,0.956-1.594,1.9-2.403,2.844c-0.49,0.589-1.005,1.177-1.52,1.766   c-6.608,7.504-13.781,13.131-21.236,17.239c-16.282,9.012-33.95,10.777-50.159,9.183c-13.867-1.361-26.667-5.174-36.66-9.024   c-12.715-4.892-20.868-9.833-20.868-9.833s-19.593-14.357-37.531-19.421c-2.734-0.785-5.419-1.336-7.994-1.594   c-19.519-1.962-35.238,23.565-52.084,44.041C48.884,342.513,0,354.847,0,354.847c21.885-13.413,34.6-41.699,34.6-41.699   c5.199-31.584,19.752-64.038,33.129-88.768c13.646-25.257,26.079-42.471,26.079-42.471c3.261-3.543,7.075-6.768,11.268-9.711   c10.924-7.663,24.411-13.328,37.346-17.459c24.142-7.724,46.334-10.091,46.334-10.091c5.873,0.454,11.844,1.667,17.729,3.372   c0.012,0,0.012,0,0.012,0c30.824,8.926,59.257,31.486,59.257,31.486c13.94-48.712,50.085-97.645,50.085-97.645   c6.903-4.414,15.755-7.234,24.534-9.012c18.048-3.666,35.814-2.992,35.814-2.992c25.245,8.534,47.143,26.091,62.31,40.951   c6.602,6.469,11.936,12.427,15.724,16.91C458.421,132.688,460.406,139.152,459.753,145.627z" fill="#d2d8ca"/><path d="M438.496,110.808c-8.509,8.999-31.339,25.601-53.408,25.601c-36.206,0-45.782-20.427-45.782-20.427   c-28.359,12.665-42.472,48.957-47.903,67.079c-3.237,10.79-10.973,19.654-21.236,24.289c-0.294,0.135-0.601,0.27-0.895,0.405   c-8.117,3.58-17.202,4.095-25.772,1.827c-23.553-6.229-61.942-8.595-61.942-8.595c-43.33,13.082-53.138,42.508-53.138,42.508   s-5.395,19.348-2.599,36.084c-2.734-0.785-5.419-1.336-7.994-1.594c-19.519-1.962-35.238,23.565-52.084,44.041   C48.884,342.513,0,354.847,0,354.847c21.885-13.413,34.6-41.699,34.6-41.699c10.532-63.842,59.207-131.24,59.207-131.24   c27.673-30.076,94.948-37.261,94.948-37.261c36.672,2.869,76.998,34.858,76.998,34.858c13.94-48.712,50.085-97.645,50.085-97.645   c21.064-13.487,60.348-12.003,60.348-12.003C401.432,78.39,423.33,95.948,438.496,110.808z" fill="#c6b1ac"/><path d="M220.879,317.844v0.012c-13.867-1.361-26.667-5.174-36.66-9.024l38.094-49.129   C222.313,259.703,229.952,296.572,220.879,317.844z" fill="#b3b7ac"/><path d="M223.241,251.664c0,0-1.873,26.259-12.261,48.226l-24.988,27.345   c-3.665,4.011-8.37,6.916-13.592,8.414c-14.416,4.136-43.965,14.044-46.428,26.363l11.443,35.148h20.435l4.904,17.165H123.52   L98.998,359.56l38.417-42.504l-10.626-20.435c0,0-3.27-34.33,1.635-53.13" fill="#d2d8ca"/><path d="M293.794,289.669c-0.49,0.589-1.005,1.177-1.52,1.766c-6.608,7.504-13.781,13.131-21.236,17.239   c-4.353-19.777-17.557-37.396-17.557-37.396l22.486-36.868L293.794,289.669z" fill="#b3b7ac"/><path d="M316.366,257.852c-5.665,9.723-12.334,19.519-20.169,28.972l-13.83-32.565l24.252-16.491   l4.622,9.612L316.366,257.852z" fill="#b3b7ac"/><path d="M277.431,226.684c0,0-3.106,22.69-13.935,40.495c0,0,29.413,37.254,25.9,69.15l15.283,11.397v0   c7.442-5.6,11.562-14.592,10.874-23.88c-1.339-18.081-5.309-47.564-17.081-61.361c0,0,13.755-14.224,17.99-23.656" fill="#d2d8ca"/><path d="M206.485,148.019c-1.017,0.13-51.171,6.382-67.867,42.327c-1.938,4.173-4.887,7.841-8.836,10.202   c-3.278,1.959-7.59,3.592-12.727,3.418c-9.809-0.331,4.071-27.648,25.368-49.227c24.142-7.724,46.334-10.091,46.334-10.091   C194.628,145.101,200.599,146.315,206.485,148.019z" fill="#ba8e88"/><path d="M88.129,224.917c0.157,2.501-0.121,5.017-1.073,7.335c-1.753,4.268-5.644,9.711-14.031,9.183   c-4.782-0.307-5.885-7.638-5.297-17.055c13.646-25.257,26.079-42.471,26.079-42.471c3.261-3.543,7.075-6.768,11.268-9.711   C97.815,186.626,87.219,210.438,88.129,224.917z" fill="#ba8e88"/><path d="M371.172,152.323c0,0-24.96,4.216-40.853-5.897l17.337,19.139L371.172,152.323z" fill="#b3b7ac"/><path d="M459.753,145.627l-1.149,11.392c-19.458-43.354-118.231-84.158-118.231-84.158v-0.012   c18.048-3.666,35.814-2.992,35.814-2.992c25.245,8.534,47.143,26.091,62.31,40.951c6.602,6.469,11.936,12.427,15.724,16.91   C458.421,132.688,460.406,139.152,459.753,145.627z" fill="#ba8e88"/><circle cx="391" cy="110" r="7" fill="#666666"/><path d="M458.604,157.019 439.849,148.673 411.24,150.308 393.258,142.952 411.24,155.621    439.134,152.862 452.681,161.534z" fill="#b3b7ac"/></g><g transform="matrix(0.1431243121623993 0 0 0.1431243121623993 178 281.0000003494247)" id="L1_11"><path d="M418.79,32.667l-1.19,3.55l-0.63,5.41c-0.2,1.72-1.43,3.14-3.11,3.59l-37.28,9.93   c-0.02,0.38-0.04,0.79-0.05,1.2c-0.22,17.05,17.84,57.02,29.16,80.35c6.42,13.23,10.04,27.64,10.56,42.34   c1.76,49.74-5.74,93.53-5.74,93.53c-13.67,19.25-34.45,38.81-52.9,54.32l-0.01,0.01c-5.51,4.64-10.82,8.91-15.66,12.7   c-4.19,3.28-8.04,6.21-11.38,8.69c-7.93,5.92-12.99,9.38-12.99,9.38c-8.96,2.29-17.88,3.74-26.63,4.54   c-0.19,0.03-0.39,0.06-0.59,0.07c-16.63,1.49-32.66,0.63-47.3-1.47c0,0-0.01,0-0.02,0c-1.07-0.15-2.12-0.31-3.17-0.48   c0,0,0,0-0.01,0c-15.63-2.46-29.56-6.28-40.79-10.06c-9.3-3.12-16.74-6.21-21.77-8.47c-4.72-2.12-7.31-3.51-7.31-3.51   c-3.33,3.13-8.23,6.49-14.08,9.9h-0.01c-28.23,16.47-78.39,34.29-78.39,34.29c-32.71,12.36-77.5,8.21-77.5,8.21   c0.99,0.08,2.03,0.08,3.11,0c29.03-2.03,86.6-57.45,86.6-57.45c11.54-34.23,68.41-96.59,68.41-96.59   c32.51-19.92,82.55-23.79,82.55-23.79c31.41,7.98,54.58,31.17,54.58,31.17c31.42,7.98,53.11-2.43,66.05-11.7   c12.94-9.27,16.82-70.27,1.72-97.9c-8.71-15.95-12.13-43.48-13.46-63.91v-0.01c-0.38-5.9-0.59-11.22-0.71-15.49   c-0.18-6.8,1.08-13.55,3.7-19.83l5.17-12.42l4.47-12.85c0.63-1.81,1.7-3.39,3.07-4.63c1.38-1.25,3.07-2.15,4.93-2.59   c4.18-0.99,8.59,0.49,11.28,3.85c3.19,3.98,5.27,7.74,5.27,7.74c6.88,3.98,17.92,6.47,25.78,7.85   C417.4,22.997,420.37,27.977,418.79,32.667z" fill="#c9d0d6"/><path d="M418.79,32.667l-1.19,3.55l-0.63,5.41c-0.2,1.72-1.43,3.14-3.11,3.59l-37.28,9.93   c-0.02,0.38-0.04,0.79-0.05,1.2l-7.93-1.76c0,0-15.85-4.75-19.04,15.92c-0.38-5.9-0.59-11.22-0.71-15.49   c-0.18-6.8,1.08-13.55,3.7-19.83l5.17-12.42l4.47-12.85c0.63-1.81,1.7-3.39,3.07-4.63c1.38-1.25,3.07-2.15,4.93-2.59   c4.18-0.99,8.59,0.49,11.28,3.85c3.19,3.98,5.27,7.74,5.27,7.74c6.88,3.98,17.92,6.47,25.78,7.85   C417.4,22.997,420.37,27.977,418.79,32.667z" fill="#bac7d1"/><path d="M410.51,272.567c-13.67,19.25-34.45,38.81-52.9,54.32l-0.01,0.01c-5.51,4.64-10.82,8.91-15.66,12.7   c-4.19,3.28-8.04,6.21-11.38,8.69c-7.93,5.92-12.99,9.38-12.99,9.38c-8.96,2.29-17.88,3.74-26.63,4.54   c-0.19,0.03-0.39,0.06-0.59,0.07c-16.63,1.49-32.66,0.63-47.3-1.47c0,0-0.01,0-0.02,0c-1.07-0.15-2.12-0.31-3.17-0.48   c0,0,0,0-0.01,0c-15.63-2.46-29.56-6.28-40.79-10.06c-9.3-3.12-16.74-6.21-21.77-8.47c-4.72-2.12-7.31-3.51-7.31-3.51   c-3.33,3.13-8.23,6.49-14.08,9.9h-0.01c-28.23,16.47-78.39,34.29-78.39,34.29c-32.71,12.36-77.5,8.21-77.5,8.21   c0.99,0.03,2.03,0.03,3.11,0c22.42-0.49,61.81-12.02,71.56-15.69l0.15-0.06c0.5-0.17,49.77-17.75,77.04-33.66l0.86-0.5   c5.25-3.11,9.21-5.9,11.78-8.32l4.19-3.93l5.07,2.71c0.02,0.01,2.46,1.31,6.81,3.26c4.51,2.03,11.83,5.1,21.04,8.19   c12.85,4.32,25.92,7.57,38.87,9.64h0.02l0.64,0.1c0.81,0.14,1.63,0.26,2.46,0.38h0.02l0.57,0.08c9.88,1.42,19.71,2.14,29.19,2.14   c5.48,0,10.95-0.24,16.26-0.72h0.07l0.25-0.04l0.25-0.03c8.25-0.75,16.31-2.09,24-3.97c1.9-1.33,6.04-4.27,11.58-8.4   c3.54-2.63,7.32-5.51,11.22-8.57c5.28-4.13,10.36-8.25,15.11-12.24l0.34-0.29c12.284-10.327,22.941-20.194,31.901-29.528   c12.405-12.924,19.983-29.702,21.703-47.533c1.631-16.918,3.053-39.984,2.187-64.389c-0.48-13.6-3.76-26.77-9.76-39.13   c-20.81-42.91-30.87-71.71-29.89-85.6l7.98,0.56c-1.15,16.3,17.52,57.66,29.11,81.55c6.42,13.23,10.04,27.64,10.56,42.34   C418.01,228.777,410.51,272.567,410.51,272.567z" fill="#bac7d1"/><path d="M239.85,360.327c-15.63-2.46-29.56-6.28-40.79-10.06l4.02-58.17c0,0,21.79,19.41,24.79,44.91   C229.88,354.107,236.03,358.977,239.85,360.327z" fill="#9aa5ad"/><path d="M330.56,348.287c-7.93,5.92-12.99,9.38-12.99,9.38c-8.96,2.29-17.88,3.74-26.63,4.54   c5.81-0.98,3.52-10.08,6.43-21.7c3-12,12.6-24.34,12.6-24.34L330.56,348.287z" fill="#9aa5ad"/><path d="M339.949,312.955 357.61,326.888 341.938,339.595z" fill="#9aa5ad"/><path d="M177.29,341.797c-4.72-2.12-7.31-3.51-7.31-3.51c-3.33,3.13-8.23,6.49-14.08,9.9h-0.01l-7.33-27.74   l26.81,12.56L177.29,341.797z" fill="#9aa5ad"/><path d="M193.529,280.831c0,0,18.204,18.204,22.487,36.407c0,0,5.354,54.611-1.071,76.026l16.062,4.283   l-7.496,19.274h-38.549c0,0-2.142-44.973,5.354-53.54c0,0-32.124-21.416-41.761-42.832l9.637-24.628L193.529,280.831z" fill="#c9d0d6"/><path d="M339.949,312.955c0,0,26.77,36.407,26.77,78.168l22.487,7.496l-7.496,18.204h-43.903l-1.071-20.345   c0,0-10.708-31.053-29.982-41.761c0,0-4.283-19.274,3.212-38.549L339.949,312.955z" fill="#c9d0d6"/><path d="M214.945,393.264 199.37,396.007 216.925,383.139z" fill="#9aa5ad"/><path d="M366.719,391.123 354.37,395.007 366.299,381.97z" fill="#9aa5ad"/><path d="M417.6,36.217l-35.563,7.957c0,0,9.84-7.347,36.753-11.507L417.6,36.217z" fill="#9aa5ad"/><path d="M377.037,16.507c0,0,4.456,1.779,6.821,6.576l-2.004,1.982c0,0-5.334-1.544-8.434-3.396   C373.42,21.67,374.244,16.89,377.037,16.507z" fill="#4d4d4d"/></g><g transform="matrix(0.1974834373726849 -0.020787718847257136 -0.020787718847257136 -0.1974834373726849 139.37442287635776 226.19565970025832)" id="L1_19"><path d="M172.984,216.29c0,0-6.592,30.032,1.465,48.344c0,0,36.624,21.242,44.681,41.019l-38.822,53.471   l43.216,54.936h55.669l-9.522-16.115H245.5l-32.962-46.879l47.837-52.807c5.098-5.627,5.957-13.911,2.122-20.465l-33.844-57.843   l-33.694-11.72" fill="#808c93"/><path d="M379.847,48.092c0,0,6.376-33.961-11.29-47.885c0,0-86.433-7.325-89.632,65.051L379.847,48.092z" fill="#5b87a5"/><path d="M400.025,80.489c-0.72,0.87-1.48,1.72-2.27,2.55c-2.89,3.03-6.25,5.81-10.15,8   c0,0-24.17-10.26-48.34-12.46c-24.18-2.2-24.18-2.2-24.18-2.2c-23.44,38.1-7.32,75.45-6.59,97.43   c0.34,10.09-7.84,29.49-22.34,48.63l-0.01,0.02c-6.25,8.26-13.68,16.48-22.1,23.87c-4.65,4.09-9.61,7.93-14.84,11.39   c-8.44,5.6-17.62,10.2-27.39,13.28c-3.03,0.97-6.13,1.78-9.28,2.43c-3.92,0.8-7.72,1.5-11.42,2.13   c-25.32,4.24-45.3,4.41-58.89,3.53c-13.34-0.87-20.51-2.74-20.51-2.74c-65.92,43.95-115,40.29-115,40.29   c56.39-25.63,88.63-97.42,88.63-97.42c25.63-31.49,87.16-60.8,87.16-60.8c21.29-6.01,62.92-6.31,82.75-6.08   c0,0-7.3-87.67,35.91-111.12c0,0,21.38-8.66,44.13-10.08c5.27-0.33,10.5,1.07,14.91,3.99l30.32,20.01l16.67,5.5   C407.195,60.639,409.005,69.779,400.025,80.489z" fill="#a6b2bc"/><path d="M201.119,275.559c-25.325,4.241-45.3,4.406-58.891,3.527c-4.373-24.359,7.636-56.266,7.636-56.266   L201.119,275.559z" fill="#8a949b"/><path d="M249.21,257.715c-8.449,5.603-17.624,10.207-27.391,13.284l-15.877-7.834l13.097-22.095   L249.21,257.715z" fill="#8a949b"/><path d="M151.01,216.29c0,0-6.592,30.032,1.465,48.344c0,0,36.624,21.242,44.681,41.019l-38.822,53.471   l43.216,54.936h55.669l-9.522-16.115h-24.172l-32.962-46.879L238.4,298.26c5.098-5.627,5.957-13.911,2.122-20.465l-33.844-57.843   l-33.694-11.72" fill="#a6b2bc"/><path d="M286.16,222.435l-0.011,0.022c-6.252,8.262-13.679,16.481-22.106,23.875l-8.284-21.249l9.614-26.666   L286.16,222.435z" fill="#8a949b"/><path d="M279.072,190.062l14.039,6.45c0,0,10.987,32.962,8.057,57.134l26.543,15.926   c1.796,1.078,3.226,2.671,4.104,4.573l0,0c1.831,3.968,0.995,8.656-2.095,11.746l-25.622,25.622l-20.509-5.86l22.707-10.255   l9.486-14.064l-34.39-15.968l-16.847-48.344l0.827-18.6L279.072,190.062z" fill="#a6b2bc"/><path d="M351.984,50.749c0,0,0.824-2.472,9.064-5.494c0,0,5.494,0.824,7.966,5.494H351.984z" fill="#4d4d4d"/><path d="M397.755,83.039c-2.89,3.03-6.25,5.81-10.15,8c0,0-24.17-10.26-48.34-12.46   c-24.18-2.2-24.18-2.2-24.18-2.2l15.97-13.04C331.055,63.339,375.465,70.739,397.755,83.039z" fill="#8a949b"/><circle cx="186" cy="176" r="8" fill="#8a949b"/><circle cx="164" cy="182" r="6" fill="#8a949b"/><circle cx="309" cy="49" r="6" fill="#8a949b"/></g><g transform="matrix(0.24333719909191132 0 0 0.24333719909191132 184.8499248251319 84.79682966369796)" id="L1_20"><path d="M225.322,228.671c0,0-1.089,37.79-9.641,53.976c0,0-33.073,16.262-61.676,22.22l4.111,29.332   l14.169,6.147l-1.553,17.692l-34.778-15.087l-13.809-45.784l45.319-33.907l-17.209-27.362l8.306-43.842L225.322,228.671z" fill="#486d4d"/><path d="M301.874,162.52c-7.02-25.975-30.889-53.354-30.889-53.354   c-19.657-10.53-52.652-14.743-52.652-14.743c-20.359,5.616-67.395,27.379-67.395,27.379   c-21.061,23.167-42.546,71.478-42.546,71.478l10.252,24.701l176.912-28.783L301.874,162.52z" fill="#618466"/><path d="M116.049,193.416c4.729-10.199,22.181-46.563,39.147-65.844c7.511-3.44,45.333-20.606,63.635-25.99   c6.177,0.899,31.53,4.964,47.685,13.171c4.042,4.848,21.829,26.963,28.105,47.929l-4.817,20.338L122.998,210.16L116.049,193.416z" fill="#486d4d"/><path d="M461.937,166.592l-12.637,0.14l-5.616,19.657c-19.657,7.02-108.113,5.616-108.113,5.616   c-7.133,7.133-12.861,15.417-17.326,23.378c-9.646,17.102-13.563,32.785-13.563,32.785c-2.921,1.586-6.066,3.019-9.393,4.311   h-0.014c-5.953,2.345-12.44,4.24-19.138,5.785h-0.014c-5.04,1.18-10.179,2.148-15.276,2.935l-0.028,0.014   c-8.073,1.264-16.007,2.12-23.237,2.696c-17.775,1.404-31.184,1.109-31.184,1.109l-21.258-12.51h-0.014l-26.467-15.571   l-7.596,1.896l-48.567,12.145C61.779,259.401,0,255.189,0,255.189c22.465-2.808,68.799-37.91,68.799-37.91   c56.163-40.718,137.598-61.779,137.598-61.779c54.759-1.404,95.476,7.02,95.476,7.02c7.02-16.849,36.506-39.314,36.506-39.314   c38.109-1.03,83.773,9.273,105.401,14.837c7.677,1.975,13.587,8.099,15.315,15.835L461.937,166.592z" fill="#618466"/><path d="M449.301,166.733 387.522,166.733 381.203,173.753 375.587,163.924 367.163,173.753    359.44,166.031 348.91,166.031 357.802,168.371 367.163,181.709 374.885,172.349 381.203,181.943 391.734,171.413 448.055,171.413z" fill="#486d4d"/><path d="M134.79,194.814 155.149,133.035 150.235,185.687z" fill="#618466"/><path d="M183.23,120.399 169.19,180.071 185.336,175.157z" fill="#618466"/><path d="M216.928,107.06 205.695,177.263 222.544,173.051z" fill="#618466"/><path d="M248.519,126.015 236.585,168.839 254.136,168.839z" fill="#618466"/><path d="M272.388,131.631 277.303,173.753 292.045,168.839z" fill="#618466"/><path d="M185.14,252.507 185.126,252.507 158.659,236.936 151.063,238.831 160.063,220.087z" fill="#486d4d"/><path d="M260.847,261.198l-0.028,0.014c-8.073,1.264-16.007,2.12-23.237,2.696l-1.699-36.8L260.847,261.198z   " fill="#486d4d"/><path d="M299.066,230.618l-3.777,21.861h-0.014c-5.953,2.345-12.44,4.24-19.138,5.785h-0.014l-5.841-15.711   l21.3-37.39L299.066,230.618z" fill="#486d4d"/><path d="M318.245,215.383c-9.646,17.102-13.563,32.785-13.563,32.785l-2.808-35.102l11.935-0.702   L318.245,215.383z" fill="#486d4d"/><path d="M235.883,227.107c0,0,14.041,35.102,12.637,53.354c0,0-23.869,28.081-47.738,44.93l15.445,25.273   h15.445l5.616,16.849h-37.91l-30.889-36.506l28.081-49.142l-26.677-18.253l-9.828-43.526L235.883,227.107z" fill="#618466"/><path d="M293.449,199.026c0,0-8.424,28.783-15.445,42.122l29.485,37.208l-8.424,23.869   c0,0,19.657-9.126,28.783-26.677c0,0-11.233-16.147-23.167-27.379l9.126-35.804L293.449,199.026z" fill="#618466"/><path d="M363.87,131.999c0,0,7.263,0.348,13.022,6.054l-1.893,3.831c0,0-8.406,0.422-13.761-0.7   C361.238,141.183,360.057,133.927,363.87,131.999z" fill="#4d4d4d"/><path d="M216.226,350.665 200.807,350.665 208.953,338.764z" fill="#486d4d"/></g><g transform="matrix(0.1313692182302475 0 0 0.1313692182302475 7 104.0000006735238)" id="L1_21"><path d="M261.279,188.269c-33.701-15.17-39.615-54.557-39.615-54.557S95.38,52.084,0,21.022   c0,0,108.056,117.866,78.488,223.254l33.69,25.736l-3.606,10.346c0,0,36.763-10.872,43.742,3.267l3.599,3.602   c0,0,17.584,8.871,5.245,42.45l23.573-6.392l-2.885,9.745l13.13,29.254c0,0,136.574-5.809,229.054,73.421   c0,0-41.124-123.271-107.454-214.273c0,0-39.481,2.825-41.51-27.779C273.039,163.051,261.279,188.269,261.279,188.269z" fill="#639e6c"/><path d="M128.051,242.098c0,0,5.959-33.348-4.922-57.549l19.98,44.505L128.051,242.098z" fill="#6daa77"/><path d="M171.258,227.604c0,0-14.734-40.561-34.566-66.107c0,0,34.755,52.249,79.22,65.086   S171.258,227.604,171.258,227.604z" fill="#6daa77"/><path d="M198.715,309.945c0,0,33.8-2.273,56.665,11.192l-42.051-24.732L198.715,309.945z" fill="#6daa77"/><path d="M217.852,268.584c0,0,38.704,19.086,61.927,41.594c0,0-48.131-40.265-56.023-85.868   C215.862,178.707,217.852,268.584,217.852,268.584z" fill="#6daa77"/><path d="M456.728,160.357l-18.537,9.326c-9.344,4.7-20.721,0.879-25.317-8.515l-3.668-7.489   c-1.996-4.075-5.41-7.299-9.593-9.059l-27.909-11.712c-21.379,0.723-36.906,5.236-47.113,9.569   c-10.241,4.355-15.111,8.532-15.111,8.532c-14.672,14.684-14.736,41.739-14.736,41.739l1.613,73.593l49.613,24.355   c0,0,2.744,19.349-1.431,38.295l-16.52-31.593c0,0-41.249-17.325-54.476-28.506c0,0,5.44-37.051-2.826-52.846   c0,0-18.912,12.575-38.127,37.381c0,0,0.429,37.999-6.699,55.128c0,0-21.218,17.132-39.221,21.192c0,0,6.615,12.635,8.298,32.533   c0,0-24.696-27.984-33.815-32.609l32.96-29.3l-7.752-31.482l-42.519,25.608l27.187-34.895l-30.846-9.997l-31.607,30.756   c-3.956-9.428-30.089-36.089-30.089-36.089c19.734,3.122,31.861,10.626,31.861,10.626c5.335-17.652,23.952-37.578,23.952-37.578   c17.612-5.884,55.477-2.707,55.477-2.707c26.132-17.383,40.035-35.331,40.035-35.331c-15.16-9.38-52.509-6.63-52.509-6.63   c-10.202-14.005-24.498-56.392-24.498-56.392l-30.32-18.759c19.194-2.799,38.299,1.339,38.299,1.339l20.707,51.237l20.743,1.958   c29.545,2.788,59.105-5.104,83.366-22.195c0.164-0.115,0.326-0.229,0.487-0.342c5.395-3.789,9.712-8.878,12.726-14.741   c7.804-15.181,20.28-25.582,20.28-25.582c18.81-4.431,33.829,0.669,33.829,0.669l53.873,36.392c4.36,2.949,9.74,3.909,14.82,2.713   c0.589-0.139,1.172-0.302,1.747-0.502c9.065-3.081,19.011,1.155,23.063,9.836L456.728,160.357z" fill="#79b585"/><path d="M342.005,96.951c0,0,8.531,3.351,13.102,12.491l-3.808,3.809c0,0-10.207-2.894-16.148-6.398   C335.15,106.853,336.673,97.712,342.005,96.951z" fill="#4d4d4d"/><path d="M456.728,160.357l-18.537,9.326c-9.344,4.7-20.721,0.879-25.317-8.515l-3.668-7.489   c-1.996-4.075-5.41-7.299-9.593-9.059l-27.909-11.712c-21.379,0.723-36.906,5.236-47.113,9.569l5.775-20.126l36.283,0.091   L456.728,160.357z" fill="#639e6c"/></g></defs><g fi:class="KUsePattern"><pattern id="pattern_L1_9" width="350" height="350" patternUnits="userSpaceOnUse"><use xlink:href="#L1_9" x="-350" y="-350"/><use xlink:href="#L1_9" x="0" y="-350"/><use xlink:href="#L1_9" x="350" y="-350"/><use xlink:href="#L1_9" x="-350" y="0"/><use xlink:href="#L1_9" x="0" y="0"/><use xlink:href="#L1_9" x="350" y="0"/><use xlink:href="#L1_9" x="-350" y="350"/><use xlink:href="#L1_9" x="0" y="350"/><use xlink:href="#L1_9" x="350" y="350"/></pattern><rect x="0" y="0" width="100%" height="100%" fill="url(#pattern_L1_9)"/></g><g fi:class="KUsePattern"><pattern id="pattern_L1_11" width="350" height="350" patternUnits="userSpaceOnUse"><use xlink:href="#L1_11" x="-350" y="-350"/><use xlink:href="#L1_11" x="0" y="-350"/><use xlink:href="#L1_11" x="350" y="-350"/><use xlink:href="#L1_11" x="-350" y="0"/><use xlink:href="#L1_11" x="0" y="0"/><use xlink:href="#L1_11" x="350" y="0"/><use xlink:href="#L1_11" x="-350" y="350"/><use xlink:href="#L1_11" x="0" y="350"/><use xlink:href="#L1_11" x="350" y="350"/></pattern><rect x="0" y="0" width="100%" height="100%" fill="url(#pattern_L1_11)"/></g><g fi:class="KUsePattern"><pattern id="pattern_L1_19" width="350" height="350" patternUnits="userSpaceOnUse"><use xlink:href="#L1_19" x="-350" y="-350"/><use xlink:href="#L1_19" x="0" y="-350"/><use xlink:href="#L1_19" x="350" y="-350"/><use xlink:href="#L1_19" x="-350" y="0"/><use xlink:href="#L1_19" x="0" y="0"/><use xlink:href="#L1_19" x="350" y="0"/><use xlink:href="#L1_19" x="-350" y="350"/><use xlink:href="#L1_19" x="0" y="350"/><use xlink:href="#L1_19" x="350" y="350"/></pattern><rect x="0" y="0" width="100%" height="100%" fill="url(#pattern_L1_19)"/></g><g fi:class="KUsePattern"><pattern id="pattern_L1_20" width="350" height="350" patternUnits="userSpaceOnUse"><use xlink:href="#L1_20" x="-350" y="-350"/><use xlink:href="#L1_20" x="0" y="-350"/><use xlink:href="#L1_20" x="350" y="-350"/><use xlink:href="#L1_20" x="-350" y="0"/><use xlink:href="#L1_20" x="0" y="0"/><use xlink:href="#L1_20" x="350" y="0"/><use xlink:href="#L1_20" x="-350" y="350"/><use xlink:href="#L1_20" x="0" y="350"/><use xlink:href="#L1_20" x="350" y="350"/></pattern><rect x="0" y="0" width="100%" height="100%" fill="url(#pattern_L1_20)"/></g><g fi:class="KUsePattern"><pattern id="pattern_L1_21" width="350" height="350" patternUnits="userSpaceOnUse"><use xlink:href="#L1_21" x="-350" y="-350"/><use xlink:href="#L1_21" x="0" y="-350"/><use xlink:href="#L1_21" x="350" y="-350"/><use xlink:href="#L1_21" x="-350" y="0"/><use xlink:href="#L1_21" x="0" y="0"/><use xlink:href="#L1_21" x="350" y="0"/><use xlink:href="#L1_21" x="-350" y="350"/><use xlink:href="#L1_21" x="0" y="350"/><use xlink:href="#L1_21" x="350" y="350"/></pattern><rect x="0" y="0" width="100%" height="100%" fill="url(#pattern_L1_21)"/></g></svg>