<svg xmlns="http://www.w3.org/2000/svg" xmlns:xlink="http://www.w3.org/1999/xlink" xmlns:fi="http://pattern.flaticon.com/" x="0" y="0" width="2160" height="1080" viewBox="0 0 2520 1260"><rect x="0px" y="0px" width="100%" height="100%" opacity="1" fill="#fa4b3c"/><defs><g transform="matrix(0.1767768809889196 0.04695635860144609 -0.04695635860144609 0.1767768809889196 305.7656286580367 274.72403006131793)" id="L1_32"><path d="M394.056,154.594l-36.649-36.649l47.472-47.472c16.722-16.722,35.44-31.337,55.721-43.507l0,0  l24.427,24.427l0,0c-12.17,20.281-26.785,38.999-43.507,55.721L394.056,154.594z" fill="#e7eced"/><path d="M181.451,395.219l-64.669-64.669c-5.753-5.753-5.753-15.081,0-20.842l203.345-203.345l85.503,85.503  L202.294,395.219C196.533,400.98,187.204,400.98,181.451,395.219z" fill="#c6e2f7"/><g><path d="M118.579,393.423L118.579,393.423c-6.746-6.746-6.746-17.681,0-24.427l18.32-18.32l24.427,24.427   l-18.32,18.32C136.26,400.177,125.325,400.177,118.579,393.423z" fill="#25ae88"/><rect x="297px" y="119px" width="155px" height="34px" transform="matrix(0.7071 0.7071 -0.7071 0.7071 206.6362 -225.1434)" fill="#25ae88"/></g><rect x="318px" y="141px" width="51px" height="51px" transform="matrix(0.7071 0.7071 -0.7071 0.7071 219.3248 -194.5941)" fill="#e7eced"/><rect x="317px" y="125px" width="17px" height="120px" transform="matrix(0.7071 -0.7071 0.7071 0.7071 -35.83 285.1057)" fill="#68a8ce"/><g><path d="M503.365,78.359c-2.211,0-4.422-0.846-6.107-2.531l-61.076-61.076   c-3.377-3.377-3.377-8.836,0-12.214c3.369-3.377,8.836-3.377,12.214,0l61.076,61.076c3.377,3.377,3.377,8.836,0,12.214   C507.787,77.521,505.567,78.359,503.365,78.359z" fill="#4d007e"/><path d="M405.639,151.649c-2.211,0-4.422-0.846-6.107-2.531l-36.649-36.641   c-1.624-1.624-2.531-3.809-2.531-6.107c0-2.298,0.907-4.492,2.531-6.107l35.889-35.889c17.206-17.206,36.511-32.279,57.388-44.812   c3.403-2.03,7.748-1.52,10.555,1.296l24.427,24.427c2.799,2.799,3.334,7.152,1.296,10.555   c-12.516,20.86-27.588,40.165-44.812,57.388l-35.889,35.889C410.062,150.802,407.85,151.649,405.639,151.649z M381.212,106.362   l24.427,24.427l29.782-29.782c14.632-14.632,27.623-30.871,38.679-48.336l-14.77-14.779   c-17.474,11.065-33.712,24.056-48.336,38.688L381.212,106.362z" fill="#4d007e"/><path d="M191.868,408.175c-6.245,0-12.11-2.427-16.524-6.85l-64.669-64.661   c-9.113-9.113-9.113-23.935,0-33.056l203.354-203.345c3.369-3.377,8.836-3.377,12.214,0l85.503,85.503   c1.624,1.624,2.531,3.809,2.531,6.107s-0.907,4.492-2.531,6.107L208.401,401.326C203.987,405.748,198.113,408.175,191.868,408.175z    M320.127,118.584l-197.239,197.23c-2.375,2.375-2.375,6.254,0,8.629l64.669,64.661l0,0c2.306,2.315,6.314,2.306,8.62,0   l197.239-197.239L320.127,118.584z" fill="#4d007e"/><path d="M130.792,407.113c-6.634,0-13.267-2.522-18.32-7.575l0,0c-10.106-10.106-10.106-26.543,0-36.649   l18.32-18.32c3.369-3.377,8.836-3.377,12.214,0l24.436,24.427c3.377,3.377,3.377,8.836,0,12.214l-18.32,18.329   C144.068,404.582,137.426,407.113,130.792,407.113z M124.685,387.324c3.36,3.351,8.845,3.351,12.222,0l12.214-12.222   l-12.222-12.214l-12.214,12.214C121.317,378.462,121.317,383.947,124.685,387.324z" fill="#4d007e"/><path d="M8.64,511.999c-2.211,0-4.422-0.846-6.107-2.531c-3.377-3.377-3.377-8.836,0-12.214l109.939-109.939   c3.369-3.377,8.836-3.377,12.214,0c3.377,3.377,3.377,8.836,0,12.214L14.746,509.468C13.062,511.161,10.851,511.999,8.64,511.999z" fill="#4d007e"/><path d="M289.594,218.831c-2.211,0-4.422-0.846-6.107-2.531l-36.649-36.641   c-3.377-3.377-3.377-8.836,0-12.214c3.369-3.377,8.836-3.377,12.214,0l36.649,36.641c3.377,3.377,3.377,8.836,0,12.214   C294.016,217.985,291.805,218.831,289.594,218.831z" fill="#4d007e"/><path d="M252.944,255.481c-2.211,0-4.422-0.846-6.107-2.531l-36.641-36.649   c-3.369-3.377-3.369-8.836,0-12.214c3.369-3.377,8.845-3.377,12.214,0l36.641,36.649c3.369,3.377,3.369,8.836,0,12.214   C257.367,254.634,255.156,255.481,252.944,255.481z" fill="#4d007e"/><path d="M216.304,292.121c-2.211,0-4.422-0.846-6.107-2.531l-36.649-36.641   c-3.377-3.377-3.377-8.836,0-12.214c3.369-3.377,8.836-3.377,12.214,0l36.649,36.641c3.377,3.377,3.377,8.836,0,12.214   C220.726,291.283,218.515,292.121,216.304,292.121z" fill="#4d007e"/><path d="M179.655,328.77c-2.211,0-4.422-0.846-6.107-2.531l-36.649-36.649   c-3.377-3.377-3.377-8.836,0-12.214c3.377-3.377,8.845-3.377,12.214,0l36.649,36.649c3.377,3.377,3.377,8.836,0,12.214   C184.077,327.933,181.866,328.77,179.655,328.77z" fill="#4d007e"/><path d="M417.853,212.725c-2.211,0-4.422-0.846-6.107-2.531L301.807,100.255   c-1.624-1.624-2.531-3.809-2.531-6.107s0.907-4.492,2.531-6.107l24.427-24.427c3.377-3.377,8.836-3.377,12.214,0l109.939,109.939   c1.624,1.624,2.531,3.809,2.531,6.107c0,2.298-0.907,4.492-2.531,6.107l-24.427,24.427   C422.275,211.878,420.064,212.725,417.853,212.725z M320.127,94.148l97.725,97.717l12.214-12.214L332.35,81.935L320.127,94.148z" fill="#4d007e"/><path d="M344.563,212.725c-2.211,0-4.422-0.846-6.107-2.531l-36.649-36.641   c-1.624-1.624-2.531-3.809-2.531-6.107s0.907-4.492,2.531-6.107l36.649-36.649c3.239-3.239,8.974-3.239,12.214,0l36.649,36.649   c1.624,1.624,2.531,3.809,2.531,6.107s-0.907,4.492-2.531,6.107l-36.649,36.641C348.986,211.878,346.774,212.725,344.563,212.725z    M320.127,167.447l24.427,24.427l24.427-24.427l-24.427-24.436L320.127,167.447z" fill="#4d007e"/><path d="M368.99,237.16c-2.211,0-4.422-0.846-6.107-2.531l-85.503-85.512c-3.377-3.377-3.377-8.836,0-12.214   s8.845-3.377,12.214,0l85.503,85.512c3.377,3.377,3.377,8.836,0,12.214C373.413,236.314,371.201,237.16,368.99,237.16z" fill="#4d007e"/></g></g><g transform="matrix(0.17678463459014893 0 0 0.17678463459014893 210.74307441711426 -11.256962154855273)" id="L1_34"><path d="M458.485,255.07L256,233.256L53.514,255.07c-12.048,0-21.814,9.767-21.814,21.814l0,0  c0,12.048,9.767,21.814,21.814,21.814l203.059,24.368l201.912-24.368c12.048,0,21.814-9.767,21.814-21.814l0,0  C480.299,264.837,470.533,255.07,458.485,255.07z" fill="#4cc7b3"/><path d="M103.514,298.699c-12.048,0-21.814-9.767-21.814-21.814l0,0c0-12.047,9.767-21.814,21.814-21.814  L281,235.949l-25-2.693L53.514,255.07c-12.048,0-21.814,9.767-21.814,21.814l0,0c0,12.048,9.767,21.814,21.814,21.814  l203.059,24.368l24.929-3.009L103.514,298.699z" fill="#2aac92"/><path d="M458.485,211.441L256,183.267L53.514,211.441c-12.048,0-21.814,9.767-21.814,21.814l0,0  c0,12.048,9.767,21.814,21.814,21.814h404.971c12.048,0,21.814-9.767,21.814-21.814l0,0  C480.3,221.208,470.533,211.441,458.485,211.441z" fill="#f9545b"/><path d="M81.7,233.256c0-12.048,9.767-21.814,21.814-21.814L281,186.745l-25-3.479L53.514,211.441  c-12.048,0-21.814,9.767-21.814,21.814s9.767,21.814,21.814,21.814h50C91.467,255.07,81.7,245.304,81.7,233.256z" fill="#e64047"/><path d="M466.143,342.327l-0.95-23.492H45.857v23.492c-16.681,0-30.204,13.523-30.204,30.204l0,0  c0,16.681,13.523,30.204,30.204,30.204L256,441.33l210.143-38.594c16.681,0,30.204-13.523,30.204-30.204l0,0  C496.347,355.85,482.824,342.327,466.143,342.327z" fill="#a8503c"/><path d="M112.173,405.289c-18.562,0-33.609-15.047-33.609-33.608l0,0c0-18.562,15.047-33.608,33.609-33.608  v-19.237H45.857v23.492c-16.681,0-30.204,13.523-30.204,30.204l0,0c0,16.681,13.523,30.204,30.204,30.204L256,441.331l26.207-4.813  L112.173,405.289z" fill="#993e29"/><path d="M316.981,32.075H195.018c-99.061,0-179.366,80.305-179.366,179.366l0,0h480.695l0,0  C496.347,112.38,416.042,32.075,316.981,32.075z" fill="#fdc464"/><path d="M245.018,32.075h-50c-99.061,0-179.366,80.305-179.366,179.366l0,0h50l0,0  C65.652,112.38,145.957,32.075,245.018,32.075z" fill="#e6b25b"/><path d="M455.703,298.699c20.023,0,25.871,12.947,27.136,24.359c2.091,18.864-20.503,30.872-34.491,18.044  c-0.354-0.325-0.701-0.662-1.04-1.012l0,0c-9.486-9.792-25.193-9.792-34.679,0l0,0c-9.486,9.792-25.193,9.792-34.679,0l0,0  c-9.486-9.792-25.193-9.792-34.679,0l0,0c-9.486,9.792-25.193,9.792-34.679,0l0,0c-9.486-9.792-25.193-9.792-34.679,0l0,0  c-9.486,9.792-25.193,9.792-34.679,0l0,0c-9.486-9.792-25.193-9.792-34.679,0l0,0c-9.486,9.792-25.193,9.792-34.679,0l0,0  c-9.486-9.792-25.193-9.792-34.679,0l0,0c-9.486,9.792-25.193,9.792-34.679,0l0,0c-9.486-9.792-25.193-9.792-34.679,0l0,0  c-0.339,0.35-0.686,0.687-1.04,1.012c-13.988,12.828-36.583,0.82-34.491-18.044c1.265-11.412,7.113-24.359,27.136-24.359H455.703z" fill="#e6bb00"/><path d="M80.307,323.057c1.265-11.412,7.113-24.358,27.136-24.358h-50c-20.023,0-25.871,12.947-27.136,24.358  c-2.091,18.864,20.503,30.873,34.491,18.044c0.354-0.325,0.701-0.662,1.04-1.012c4.324-4.463,9.941-6.885,15.671-7.28  C80.39,329.878,79.916,326.588,80.307,323.057z" fill="#cca600"/><path d="M483.286,402.736H28.713c-11.716,0-21.213,9.498-21.213,21.213l0,0  c0,30.914,25.061,55.976,55.976,55.976h385.049c30.914,0,55.976-25.061,55.976-55.976l0,0  C504.5,412.233,495.002,402.736,483.286,402.736z" fill="#fdc464"/><path d="M57.5,423.949L57.5,423.949c0-11.716,9.497-21.213,21.213-21.213h-50  c-11.716,0-21.213,9.498-21.213,21.213l0,0c0,30.915,25.061,55.976,55.975,55.976h50C82.561,479.925,57.5,454.864,57.5,423.949z" fill="#e6b25b"/><path d="M180.718,134.651v-14.982c0-4.142-3.358-7.5-7.5-7.5s-7.5,3.358-7.5,7.5v14.982c0,4.142,3.358,7.5,7.5,7.5  S180.718,138.793,180.718,134.651z"/><path d="M346.282,134.651v-14.982c0-4.142-3.358-7.5-7.5-7.5s-7.5,3.358-7.5,7.5v14.982c0,4.142,3.358,7.5,7.5,7.5  S346.282,138.793,346.282,134.651z"/><path d="M256,153.223c11.948,0,23.156-4.983,30.75-13.671c2.726-3.118,2.408-7.856-0.71-10.583  c-3.119-2.727-7.857-2.408-10.583,0.71c-4.746,5.429-11.837,8.543-19.457,8.543s-14.711-3.114-19.457-8.543  c-2.726-3.118-7.464-3.437-10.583-0.711s-3.437,7.464-0.711,10.583C232.844,148.24,244.052,153.223,256,153.223z"/><path d="M0,423.949c0,35,28.475,63.476,63.476,63.476h385.049c35,0,63.476-28.475,63.476-63.476c0-11.899-7.277-22.13-17.613-26.479  c5.881-6.652,9.461-15.383,9.461-24.938c0-13.377-6.914-25.301-17.75-32.016c3.365-5.313,4.926-11.693,4.195-18.285  c-1.163-10.491-5.276-18.602-11.851-23.896c5.753-5.356,9.358-12.989,9.358-21.45c0-8.655-3.773-16.444-9.758-21.814  c5.985-5.371,9.758-13.159,9.758-21.814c0-5.196-1.365-10.077-3.746-14.314h12.294c4.142,0,7.5-3.358,7.5-7.5  c0-103.039-83.828-186.867-186.866-186.867H195.019c-34.713,0-68.609,9.599-98.025,27.758c-3.524,2.176-4.618,6.797-2.442,10.322  c2.176,3.524,6.797,4.618,10.321,2.442c27.046-16.697,58.218-25.522,90.146-25.522h121.963c92.257,0,167.769,73.061,171.705,164.367  H23.316c2.037-46.598,22.993-90.551,58.201-121.543c3.109-2.737,3.411-7.476,0.674-10.585s-7.477-3.411-10.585-0.674  C31.28,106.637,8.152,157.775,8.152,211.442c0,4.142,3.358,7.5,7.5,7.5h12.294c-2.381,4.237-3.747,9.118-3.747,14.314  c0,8.655,3.773,16.443,9.758,21.814c-5.985,5.371-9.758,13.159-9.758,21.814c0,8.729,3.841,16.574,9.916,21.949  c-6.229,5.299-10.135,13.226-11.263,23.397c-0.709,6.396,0.748,12.587,3.909,17.803c-11.239,6.638-18.61,18.893-18.61,32.498  c0,9.555,3.58,18.286,9.461,24.938C7.277,401.82,0,412.05,0,423.949z M468.302,337.226c-3.614,1.961-8.089,2.299-11.827,0.462  c-3.987-1.96-6.657-5.835-10.465-8.084c-12.381-7.313-28.792-5.03-38.768,5.268c-3.163,3.265-7.407,5.063-11.953,5.063  c-4.545,0-8.79-1.798-11.953-5.062c-12.232-12.626-33.233-12.615-45.453,0c-3.109,3.209-7.487,5.062-11.952,5.062  c-4.545,0-8.79-1.798-11.953-5.062c-12.166-12.557-33.31-12.536-45.452,0c-3.163,3.265-7.407,5.063-11.953,5.063  c-4.545,0-8.79-1.798-11.953-5.062c-12.261-12.656-33.205-12.643-45.453,0c-3.163,3.265-7.407,5.063-11.953,5.063  c-4.545,0-8.79-1.798-11.952-5.062c-12.214-12.608-33.272-12.572-45.453,0c-3.162,3.265-7.407,5.063-11.953,5.063  c-4.545,0-8.79-1.798-11.952-5.062c-12.061-12.45-33.129-12.722-45.451-0.001c-8.692,8.973-24.034,1.133-22.692-10.986  c1.258-11.343,6.58-16.849,17.121-17.59c0.029-0.002,0.059-0.001,0.089-0.003c0.821-0.059,400.732-0.093,400.732-0.093  c12.256,0,18.326,5.455,19.682,17.686C475.988,329.329,473.095,334.626,468.302,337.226z M53.515,291.198  c-7.893,0-14.314-6.421-14.314-14.314s6.421-14.314,14.314-14.314H374.68c4.142,0,7.5-3.358,7.5-7.5s-3.358-7.5-7.5-7.5H53.515  c-7.893,0-14.314-6.421-14.314-14.314c0-7.892,6.421-14.313,14.313-14.314h404.973c7.892,0,14.313,6.422,14.313,14.314  s-6.421,14.314-14.314,14.314H404.68c-4.142,0-7.5,3.358-7.5,7.5s3.358,7.5,7.5,7.5h53.806c7.893,0,14.314,6.421,14.314,14.314  s-6.421,14.314-14.314,14.314C457.558,291.198,53.894,291.198,53.515,291.198z M38.749,350.961c0.19,0.094,0.385,0.169,0.576,0.259  c1.031,0.485,2.098,0.92,3.181,1.278c9.442,3.129,19.762,1.091,27.366-5.872c7.251-6.639,17.743-9.077,25.259-1.317  c6.013,6.207,14.084,9.625,22.727,9.625c8.641,0,16.712-3.418,22.726-9.625c6.416-6.622,17.513-6.6,23.906,0  c6.013,6.207,14.084,9.625,22.726,9.625s16.713-3.418,22.725-9.624c6.403-6.609,17.522-6.592,23.906-0.001  c6.013,6.207,14.083,9.625,22.726,9.625c8.641,0,16.713-3.418,22.726-9.625c6.388-6.594,17.549-6.565,23.906,0  c6.013,6.207,14.084,9.625,22.726,9.625s16.712-3.418,22.726-9.625c6.287-6.49,17.611-6.5,23.906,0  c6.013,6.207,14.085,9.625,22.727,9.625s16.713-3.418,22.726-9.625c6.349-6.554,17.43-6.684,23.907,0.001  c8.063,8.321,21.494,10.838,31.994,5.886c8.91,3.217,14.93,11.646,14.93,21.335c0,12.516-10.181,22.7-22.695,22.705H45.849  c-12.515-0.005-22.696-10.189-22.696-22.705C23.152,362.671,29.573,353.982,38.749,350.961z M28.713,410.236h454.573  c7.562,0,13.713,6.152,13.713,13.713c0,26.729-21.746,48.476-48.476,48.476H63.476c-26.73,0-48.476-21.746-48.476-48.476  C15,416.388,21.152,410.236,28.713,410.236z"/></g><g transform="matrix(0.198441281914711 0 0 0.198441281914711 104.19900557694427 217.19903182983398)" id="L1_35"><path d="M390.611,336.421c0-0.459,0.027-0.901,0.072-1.329h-36.641c-4.14,0-7.496,3.356-7.496,7.496s3.356,7.496,7.496,7.496h36.748  C390.642,345.533,390.612,340.978,390.611,336.421z"/><circle cx="321" cy="342" r="26" fill="#f8d534"/><path d="M348.814,342.586c0,14.813-12.014,26.827-26.827,26.827c-11.964,0-22.109-7.846-25.557-18.671  c3.978,2.339,8.616,3.678,13.563,3.678c14.813,0,26.827-12.014,26.827-26.827c0-2.849-0.44-5.587-1.269-8.156  C343.487,324.095,348.814,332.721,348.814,342.586z" fill="#e5c129"/><circle cx="269" cy="234" r="26" fill="#ef4836"/><path d="M296.208,234.964c0,14.813-12.014,26.827-26.827,26.827c-11.964,0-22.109-7.846-25.557-18.671  c3.978,2.339,8.616,3.678,13.563,3.678c14.813,0,26.827-12.014,26.827-26.827c0-2.849-0.44-5.587-1.269-8.156  C290.881,216.474,296.208,225.099,296.208,234.964z" fill="#db3d31"/><circle cx="186" cy="234" r="26" fill="#1d83d8"/><path d="M212.859,234.964c0,14.813-12.014,26.827-26.827,26.827c-11.964,0-22.109-7.846-25.557-18.671  c3.978,2.339,8.616,3.678,13.563,3.678c14.813,0,26.827-12.014,26.827-26.827c0-2.849-0.44-5.587-1.269-8.156  C207.532,216.474,212.859,225.099,212.859,234.964z" fill="#147bc1"/><circle cx="333" cy="124" r="26" fill="#f8d534"/><path d="M360.282,124.694c0,14.813-12.014,26.827-26.827,26.827c-11.964,0-22.109-7.846-25.557-18.671  c3.978,2.339,8.616,3.678,13.563,3.678c14.813,0,26.827-12.014,26.827-26.827c0-2.849-0.44-5.587-1.269-8.156  C354.955,106.203,360.282,114.829,360.282,124.694z" fill="#e5c129"/><circle cx="254" cy="124" r="26" fill="#8648b5"/><path d="M281.159,124.694c0,14.813-12.014,26.827-26.827,26.827c-11.964,0-22.109-7.846-25.557-18.671  c3.978,2.339,8.616,3.678,13.563,3.678c14.813,0,26.827-12.014,26.827-26.827c0-2.849-0.44-5.587-1.269-8.156  C275.831,106.203,281.159,114.829,281.159,124.694z" fill="#713ca0"/><circle cx="175" cy="124" r="26" fill="#f8d534"/><path d="M202.037,124.696c0,14.813-12.014,26.827-26.827,26.827c-11.964,0-22.109-7.846-25.557-18.671  c3.978,2.339,8.616,3.678,13.563,3.678c14.813,0,26.827-12.014,26.827-26.827c0-2.849-0.44-5.587-1.269-8.156  C196.709,106.205,202.037,114.831,202.037,124.696z" fill="#e5c129"/><path d="M442.886,504.504H69.114c-4.764,0-8.625-3.861-8.625-8.625v-19.448c0-4.764,3.861-8.625,8.625-8.625  h373.773c4.764,0,8.625,3.861,8.625,8.625v19.448C451.511,500.643,447.65,504.504,442.886,504.504z" fill="#6b717f"/><path d="M451.513,476.432v19.45c0,4.758-3.868,8.626-8.626,8.626h-34.465v-36.702h34.465  C447.645,467.806,451.513,471.664,451.513,476.432z" fill="#5a606d"/><g><path d="M125.065,467.807H95.08V17.006c0-5.251,4.258-9.509,9.509-9.509h10.967   c5.251,0,9.509,4.258,9.509,9.509V467.807z" fill="#e4e8eb"/><path d="M423.416,467.807h-29.985V17.006c0-5.251,4.258-9.509,9.509-9.509h10.967   c5.251,0,9.509,4.258,9.509,9.509V467.807z" fill="#e4e8eb"/></g><g><path d="M423.417,17.01v450.796h-14.993V17.01c0-4.568-3.208-8.376-7.496-9.305   c0.65-0.14,1.319-0.21,2.009-0.21h10.965C419.159,7.494,423.417,11.752,423.417,17.01z" fill="#d6d6d6"/><path d="M125.065,17.01v450.796h-14.993V17.01c0-4.568-3.208-8.376-7.496-9.305   c0.65-0.14,1.319-0.21,2.009-0.21h10.965C120.807,7.494,125.065,11.752,125.065,17.01z" fill="#d6d6d6"/></g><path d="M453.402,241.138c4.14,0,7.496-3.356,7.496-7.496c0-4.14-3.356-7.496-7.496-7.496h-22.49v-93.953h22.49  c4.14,0,7.496-3.356,7.496-7.496s-3.356-7.496-7.496-7.496h-22.49V17.006C430.912,7.628,423.283,0,413.907,0H402.94  c-9.376,0-17.006,7.628-17.006,17.006V117.2h-18.991c-3.43-15.33-17.136-26.825-33.486-26.825s-30.056,11.494-33.486,26.825h-12.15  c-3.43-15.33-17.137-26.825-33.486-26.825c-16.35,0-30.056,11.494-33.486,26.825h-12.15c-3.43-15.33-17.136-26.825-33.486-26.825  s-30.056,11.494-33.486,26.825h-9.163V17.006C132.561,7.628,124.933,0,115.556,0h-10.967c-9.376,0-17.006,7.628-17.006,17.006V117.2  H58.598c-4.14,0-7.496,3.356-7.496,7.496c0,4.14,3.356,7.496,7.496,7.496h28.986v19.33c0,4.14,3.356,7.496,7.496,7.496  s7.496-3.356,7.496-7.496V17.006c0-1.11,0.903-2.013,2.013-2.013h10.967c1.11,0,2.013,0.903,2.013,2.013v443.305h-14.993V197.363  c0-4.14-3.356-7.496-7.496-7.496s-7.496,3.356-7.496,7.496v28.782H58.598c-4.14,0-7.496,3.356-7.496,7.496s3.356,7.496,7.496,7.496  h28.986v93.953H58.598c-4.14,0-7.496,3.356-7.496,7.496c0,4.14,3.356,7.496,7.496,7.496h28.986V460.31h-18.47  c-8.89,0-16.121,7.231-16.121,16.121v19.448c0,8.89,7.231,16.121,16.121,16.121h373.773c8.89,0,16.121-7.231,16.121-16.121v-19.448  c0-8.89-7.231-16.121-16.121-16.121h-11.974V350.084h22.49c4.14,0,7.496-3.356,7.496-7.496s-3.356-7.496-7.496-7.496h-22.49v-93.953  H453.402z M400.927,17.006c0-1.11,0.903-2.013,2.013-2.013h10.967c1.11,0,2.013,0.903,2.013,2.013v443.305h-14.993V17.006z   M333.458,105.368c10.658,0,19.328,8.671,19.328,19.328s-8.671,19.328-19.328,19.328s-19.328-8.671-19.328-19.328  S322.8,105.368,333.458,105.368z M254.335,105.368c10.658,0,19.328,8.671,19.328,19.328s-8.671,19.328-19.328,19.328  c-10.658,0-19.328-8.671-19.328-19.328S243.677,105.368,254.335,105.368z M175.212,105.368c10.658,0,19.328,8.671,19.328,19.328  s-8.671,19.328-19.328,19.328c-10.658,0-19.328-8.671-19.328-19.328S164.553,105.368,175.212,105.368z M132.561,132.192h9.163  c3.43,15.33,17.137,26.825,33.486,26.825s30.056-11.494,33.486-26.825h12.15c3.43,15.33,17.137,26.825,33.486,26.825  s30.056-11.494,33.486-26.825h12.15c3.43,15.33,17.137,26.825,33.486,26.825s30.056-11.494,33.486-26.825h18.991v93.953H302.55  c-3.903-14.664-17.29-25.5-33.167-25.5c-15.876,0-29.262,10.837-33.167,25.5h-17.016c-3.903-14.664-17.29-25.5-33.167-25.5  s-29.262,10.837-33.167,25.5h-20.307V132.192z M288.712,234.966c0,10.658-8.671,19.328-19.328,19.328  c-10.658,0-19.328-8.671-19.328-19.328c0-10.658,8.671-19.328,19.328-19.328C280.041,215.638,288.712,224.309,288.712,234.966z   M205.363,234.966c0,10.658-8.671,19.328-19.328,19.328c-10.658,0-19.328-8.671-19.328-19.328c0-10.658,8.671-19.328,19.328-19.328  C196.692,215.638,205.363,224.309,205.363,234.966z M442.886,475.303c0.623,0,1.128,0.506,1.128,1.128v19.448  c0,0.623-0.506,1.128-1.128,1.128H69.114c-0.623,0-1.128-0.506-1.128-1.128v-19.448c0-0.623,0.506-1.128,1.128-1.128h114.422  c4.14,0,7.496-3.356,7.496-7.496c0-4.14-3.356-7.496-7.496-7.496h-50.975V350.084h155.942c3.43,15.33,17.136,26.825,33.486,26.825  c18.925,0,34.321-15.396,34.321-34.321c0-18.925-15.396-34.321-34.321-34.321c-16.35,0-30.056,11.494-33.486,26.825H132.561v-93.953  h19.719c2.917,15.988,16.938,28.149,33.754,28.149s30.838-12.161,33.754-28.149h15.84c2.917,15.988,16.938,28.149,33.754,28.149  c16.817,0,30.838-12.161,33.754-28.149h82.797v219.172H228.514c-4.14,0-7.496,3.356-7.496,7.496c0,4.14,3.356,7.496,7.496,7.496  H442.886z M302.703,341.761c0.438-10.273,8.908-18.502,19.286-18.502c10.658,0,19.328,8.671,19.328,19.328  s-8.671,19.328-19.328,19.328c-10.379,0-18.849-8.229-19.286-18.502c0.03-0.272,0.048-0.547,0.048-0.827  C302.751,342.308,302.733,342.032,302.703,341.761z"/></g><g transform="matrix(-0.08131138321158327 0.1340538969722918 0.1340538969722918 0.08131138321158327 194.0085858480506 124.54944064974202)" id="L1_36"><path d="M383.738,124.219L383.738,124.219c-17.356-8.832-24.396-30.301-15.718-47.956l23.568-47.956  c8.678-17.655,29.789-24.814,47.145-15.982l0,0c17.356,8.832,24.396,30.301,15.718,47.956l-23.568,47.956  C422.205,125.892,401.094,133.051,383.738,124.219z" fill="#c90d75"/><path d="M331.14,224.611L331.14,224.611c-16.614,10.453-39.064,6.221-50.14-9.463l-30.079-42.597  c-11.076-15.684-6.588-36.88,10.026-47.333l0,0c16.614-10.453,39.064-6.221,50.14,9.463l30.079,42.597  C352.242,192.962,347.754,214.149,331.14,224.611z" fill="#89a800"/><path d="M225.279,107.23L104.605,227.904c-3.336,3.336-8.738,3.336-12.066,0l-36.206-36.206  c-3.336-3.336-3.336-8.738,0-12.066L177.008,58.959c3.336-3.336,8.738-3.336,12.066,0l36.206,36.206  C228.607,98.492,228.607,103.894,225.279,107.23z" fill="#340084"/><path d="M253.379,230.405H99.784v247.458c0,14.139,11.46,25.599,25.599,25.599H227.78  c14.139,0,25.599-11.46,25.599-25.599V230.405z" fill="#c6e2f7"/><g><path d="M168.048,426.665H99.784V290.136h68.264c9.429,0,17.066,7.637,17.066,17.066v102.397   C185.114,419.019,177.469,426.665,168.048,426.665z" fill="#f2ecbf"/><path d="M253.379,426.665h-17.066c-9.429,0-17.066-7.637-17.066-17.066V307.202   c0-9.429,7.637-17.066,17.066-17.066h17.066V426.665z" fill="#f2ecbf"/></g><g><path d="M399.413,136.558c-6.707,0-13.38-1.596-19.549-4.727c-21.469-10.914-30.216-37.528-19.507-59.33   l23.568-47.956c5.248-10.666,14.284-18.594,25.454-22.314c11.033-3.678,22.834-2.782,33.219,2.492   c21.469,10.914,30.216,37.528,19.507,59.33l-23.568,47.956c-5.248,10.666-14.284,18.594-25.454,22.314   C408.603,135.816,403.995,136.558,399.413,136.558z M423.041,17.07c-2.773,0-5.555,0.452-8.26,1.348   c-6.801,2.27-12.322,7.117-15.53,13.661l-23.568,47.956c-6.622,13.465-1.271,29.874,11.921,36.581l0,0   c6.28,3.191,13.414,3.729,20.078,1.519c6.801-2.27,12.322-7.117,15.53-13.661l23.568-47.956   c6.622-13.465,1.271-29.874-11.921-36.581C431.139,18.034,427.103,17.07,423.041,17.07z" fill="#4d007e"/><path d="M311.199,238.827c-14.404,0-28.577-6.588-37.17-18.756l-30.079-42.606   c-6.639-9.403-9.062-20.71-6.844-31.845c2.278-11.417,9.13-21.23,19.293-27.63c20.368-12.808,48.024-7.535,61.651,11.767   l30.079,42.606c6.639,9.403,9.062,20.71,6.843,31.845c-2.278,11.417-9.13,21.23-19.293,27.63l0,0   C328.162,236.565,319.638,238.827,311.199,238.827z M331.14,224.611h0.085H331.14z M281.009,127.991   c-5.342,0-10.743,1.434-15.513,4.446c-6.161,3.874-10.299,9.745-11.648,16.529c-1.297,6.502,0.137,13.124,4.045,18.662   l30.079,42.605c8.482,12.006,25.812,15.231,38.621,7.168c6.161-3.874,10.299-9.753,11.648-16.529   c1.297-6.502-0.137-13.124-4.045-18.662l-30.079-42.614C298.791,132.061,289.994,127.991,281.009,127.991z" fill="#4d007e"/><path d="M442.659,92.792c-1.306,0-2.62-0.299-3.865-0.922L375.94,59.897   c-4.198-2.142-5.871-7.279-3.737-11.477c2.133-4.215,7.27-5.871,11.477-3.737l62.854,31.965c4.198,2.142,5.871,7.279,3.737,11.477   C448.768,91.086,445.765,92.792,442.659,92.792z" fill="#4d007e"/><path d="M265.965,202.374c-2.833,0-5.606-1.408-7.227-3.985c-2.509-3.993-1.314-9.258,2.671-11.776   l60.167-37.87c3.993-2.5,9.258-1.314,11.767,2.671s1.314,9.258-2.671,11.776l-60.167,37.87   C269.096,201.955,267.526,202.374,265.965,202.374z" fill="#4d007e"/><path d="M98.572,238.938c-4.557,0-8.849-1.775-12.066-5L50.309,197.74c-6.656-6.656-6.656-17.484,0-24.14   L170.975,52.926c6.442-6.451,17.689-6.451,24.131,0l36.197,36.197c6.656,6.656,6.656,17.484,0,24.14L110.638,233.937   C107.412,237.163,103.129,238.938,98.572,238.938z M183.041,64.991L62.366,185.657l36.206,36.206L219.255,101.18L183.041,64.991z    M225.279,107.23h0.085H225.279z" fill="#4d007e"/><path d="M80.465,188.158c-2.184,0-4.369-0.836-6.033-2.5l-12.066-12.066c-3.336-3.336-3.336-8.729,0-12.066   c3.336-3.336,8.738-3.336,12.066,0l12.066,12.066c3.336,3.336,3.336,8.729,0,12.066C84.834,187.33,82.649,188.158,80.465,188.158z" fill="#4d007e"/><path d="M104.605,164.026c-2.184,0-4.369-0.836-6.033-2.5L86.506,149.46c-3.336-3.336-3.336-8.729,0-12.066   c3.328-3.336,8.738-3.336,12.066,0l12.066,12.066c3.336,3.336,3.336,8.729,0,12.066   C108.974,163.198,106.789,164.026,104.605,164.026z" fill="#4d007e"/><path d="M128.736,139.895c-2.184,0-4.369-0.836-6.033-2.5l-12.066-12.066c-3.336-3.336-3.336-8.729,0-12.066   c3.328-3.336,8.738-3.336,12.066,0l12.066,12.066c3.336,3.336,3.336,8.729,0,12.066   C133.105,139.058,130.921,139.895,128.736,139.895z" fill="#4d007e"/><path d="M152.876,115.763c-2.184,0-4.369-0.836-6.033-2.5l-12.066-12.074c-3.328-3.336-3.328-8.729,0-12.066   c3.336-3.345,8.738-3.328,12.066,0l12.066,12.074c3.328,3.336,3.328,8.729,0,12.066   C157.237,114.927,155.061,115.763,152.876,115.763z" fill="#4d007e"/><path d="M177.008,91.623c-2.184,0-4.369-0.836-6.033-2.5l-12.066-12.066c-3.336-3.336-3.336-8.729,0-12.066   c3.336-3.336,8.738-3.336,12.066,0l12.066,12.066c3.336,3.336,3.336,8.729,0,12.066C181.377,90.787,179.192,91.623,177.008,91.623z   " fill="#4d007e"/><path d="M227.779,511.995H125.383c-18.824,0-34.132-15.308-34.132-34.132V230.405   c0-4.719,3.823-8.533,8.533-8.533h153.595c4.71,0,8.533,3.814,8.533,8.533v247.458   C261.912,496.687,246.595,511.995,227.779,511.995z M108.317,238.938v238.925c0,9.412,7.654,17.066,17.066,17.066H227.78   c9.412,0,17.066-7.654,17.066-17.066V238.938H108.317L108.317,238.938z" fill="#4d007e"/><path d="M168.048,435.198H99.784c-4.71,0-8.533-3.814-8.533-8.533V290.136c0-4.719,3.823-8.533,8.533-8.533   h68.264c14.114,0,25.599,11.485,25.599,25.599v102.397C193.647,423.712,182.162,435.198,168.048,435.198z M108.317,418.132h59.731   c4.71,0,8.533-3.823,8.533-8.533V307.202c0-4.71-3.823-8.533-8.533-8.533h-59.731V418.132z" fill="#4d007e"/><path d="M253.379,435.198h-17.066c-14.114,0-25.599-11.486-25.599-25.599V307.202   c0-14.114,11.485-25.599,25.599-25.599h17.066c4.71,0,8.533,3.814,8.533,8.533v136.529   C261.912,431.375,258.089,435.198,253.379,435.198z M236.312,298.669c-4.71,0-8.533,3.823-8.533,8.533v102.397   c0,4.71,3.823,8.533,8.533,8.533h8.533V298.669H236.312z" fill="#4d007e"/><path d="M150.982,366.933H99.784c-4.71,0-8.533-3.814-8.533-8.533s3.823-8.533,8.533-8.533h42.665v-17.066   H99.784c-4.71,0-8.533-3.814-8.533-8.533s3.823-8.533,8.533-8.533h51.198c4.71,0,8.533,3.814,8.533,8.533V358.4   C159.515,363.111,155.692,366.933,150.982,366.933z" fill="#4d007e"/><path d="M150.982,401.066H99.784c-4.71,0-8.533-3.814-8.533-8.533S95.074,384,99.784,384h51.198   c4.71,0,8.533,3.814,8.533,8.533S155.692,401.066,150.982,401.066z" fill="#4d007e"/></g></g></defs><g fi:class="KUsePattern"><pattern id="pattern_L1_32" width="350" height="350" patternUnits="userSpaceOnUse"><use xlink:href="#L1_32" x="-350" y="-350"/><use xlink:href="#L1_32" x="0" y="-350"/><use xlink:href="#L1_32" x="350" y="-350"/><use xlink:href="#L1_32" x="-350" y="0"/><use xlink:href="#L1_32" x="0" y="0"/><use xlink:href="#L1_32" x="350" y="0"/><use xlink:href="#L1_32" x="-350" y="350"/><use xlink:href="#L1_32" x="0" y="350"/><use xlink:href="#L1_32" x="350" y="350"/></pattern><rect x="0" y="0" width="100%" height="100%" fill="url(#pattern_L1_32)"/></g><g fi:class="KUsePattern"><pattern id="pattern_L1_34" width="350" height="350" patternUnits="userSpaceOnUse"><use xlink:href="#L1_34" x="-350" y="-350"/><use xlink:href="#L1_34" x="0" y="-350"/><use xlink:href="#L1_34" x="350" y="-350"/><use xlink:href="#L1_34" x="-350" y="0"/><use xlink:href="#L1_34" x="0" y="0"/><use xlink:href="#L1_34" x="350" y="0"/><use xlink:href="#L1_34" x="-350" y="350"/><use xlink:href="#L1_34" x="0" y="350"/><use xlink:href="#L1_34" x="350" y="350"/></pattern><rect x="0" y="0" width="100%" height="100%" fill="url(#pattern_L1_34)"/></g><g fi:class="KUsePattern"><pattern id="pattern_L1_35" width="350" height="350" patternUnits="userSpaceOnUse"><use xlink:href="#L1_35" x="-350" y="-350"/><use xlink:href="#L1_35" x="0" y="-350"/><use xlink:href="#L1_35" x="350" y="-350"/><use xlink:href="#L1_35" x="-350" y="0"/><use xlink:href="#L1_35" x="0" y="0"/><use xlink:href="#L1_35" x="350" y="0"/><use xlink:href="#L1_35" x="-350" y="350"/><use xlink:href="#L1_35" x="0" y="350"/><use xlink:href="#L1_35" x="350" y="350"/></pattern><rect x="0" y="0" width="100%" height="100%" fill="url(#pattern_L1_35)"/></g><g fi:class="KUsePattern"><pattern id="pattern_L1_36" width="350" height="350" patternUnits="userSpaceOnUse"><use xlink:href="#L1_36" x="-350" y="-350"/><use xlink:href="#L1_36" x="0" y="-350"/><use xlink:href="#L1_36" x="350" y="-350"/><use xlink:href="#L1_36" x="-350" y="0"/><use xlink:href="#L1_36" x="0" y="0"/><use xlink:href="#L1_36" x="350" y="0"/><use xlink:href="#L1_36" x="-350" y="350"/><use xlink:href="#L1_36" x="0" y="350"/><use xlink:href="#L1_36" x="350" y="350"/></pattern><rect x="0" y="0" width="100%" height="100%" fill="url(#pattern_L1_36)"/></g></svg>