<?xml version="1.0" encoding="utf-8"?>
<!-- Generator: Adobe Illustrator 21.1.0, SVG Export Plug-In . SVG Version: 6.00 Build 0)  -->
<svg version="1.1" id="Layer_1" xmlns="http://www.w3.org/2000/svg" xmlns:xlink="http://www.w3.org/1999/xlink" x="0px" y="0px"
	 viewBox="0 0 595.1 126.1" style="enable-background:new 0 0 595.1 126.1;" xml:space="preserve">
<style type="text/css">
	.st0{fill:#0078D7;}
	.st1{fill:#FFFFFF;}
	.st2{font-family:'SegoeUI';}
	.st3{font-size:40.5105px;}
</style>
<rect class="st0" width="595.1" height="126.1"/>
<g transform="matrix(1,0,0,1,-197.707,-260.107)">
	<text transform="matrix(1 0 0 1 222.9712 316.8707)" class="st1 st2 st3">Micro</text>
	<text transform="matrix(1 0 0 1 325.6919 316.8707)" class="st1 st2 st3">s</text>
	<text transform="matrix(1 0 0 1 342.8808 316.8707)" class="st1 st2 st3">of</text>
	<text transform="matrix(1 0 0 1 379.2968 316.8707)" class="st1 st2 st3">t</text>
	<text transform="matrix(1 0 0 1 222.9712 357.381)" class="st1 st2 st3">S</text>
	<text transform="matrix(1 0 0 1 243.187 357.381)" class="st1 st2 st3">t</text>
	<text transform="matrix(1 0 0 1 256.9145 357.381)" class="st1 st2 st3">u</text>
	<text transform="matrix(1 0 0 1 279.8398 357.381)" class="st1 st2 st3">dentské</text>
	<text transform="matrix(1 0 0 1 420.0449 357.381)" class="st1 st2 st3"> </text>
	<text transform="matrix(1 0 0 1 431.1416 357.381)" class="st1 st2 st3">T</text>
	<text transform="matrix(1 0 0 1 448.8457 357.381)" class="st1 st2 st3">r</text>
	<text transform="matrix(1 0 0 1 462.9292 357.381)" class="st1 st2 st3">e</text>
	<text transform="matrix(1 0 0 1 484.1142 357.381)" class="st1 st2 st3">n</text>
	<text transform="matrix(1 0 0 1 507.039 357.381)" class="st1 st2 st3">érs</text>
	<text transform="matrix(1 0 0 1 559.498 357.381)" class="st1 st2 st3">k</text>
	<text transform="matrix(1 0 0 1 579.6348 357.381)" class="st1 st2 st3">é</text>
	<text transform="matrix(1 0 0 1 600.8193 357.381)" class="st1 st2 st3"> </text>
	<text transform="matrix(1 0 0 1 611.916 357.381)" class="st1 st2 st3">Centrum</text>
</g>
</svg>
