<?xml version="1.0" encoding="utf-8"?>
<!-- Generator: Adobe Illustrator 21.1.0, SVG Export Plug-In . SVG Version: 6.00 Build 0)  -->
<svg version="1.1" id="Layer_1" xmlns="http://www.w3.org/2000/svg" xmlns:xlink="http://www.w3.org/1999/xlink" x="0px" y="0px"
	 viewBox="0 0 841.2 475.3" style="enable-background:new 0 0 841.2 475.3;" xml:space="preserve">
<style type="text/css">
	.st0{fill:#0078D7;}
	.st1{enable-background:new    ;}
	.st2{fill:#FFFFFF;}
</style>
<rect class="st0" width="841.2" height="475.3"/>
<g transform="matrix(1,0,0,1,-197.707,-260.107)">
	<g class="st1">
		<path class="st2" d="M415.9,474.1h-12.5v-71.7c0-5.7,0.3-12.6,1-20.8h-0.3c-1.2,4.8-2.3,8.3-3.2,10.4l-36.5,82.2h-6.1l-36.5-81.6
			c-1-2.4-2.1-6-3.2-11h-0.3c0.4,4.3,0.6,11.3,0.6,20.9v71.6h-12.1V367.1h16.6l32.8,74.6c2.5,5.7,4.2,10,4.9,12.8h0.4
			c2.1-5.9,3.9-10.2,5.1-13.1l33.5-74.3h15.7V474.1z"/>
		<path class="st2" d="M448.7,378.3c-2.2,0-4.1-0.7-5.6-2.2c-1.5-1.5-2.3-3.4-2.3-5.7c0-2.3,0.8-4.2,2.3-5.7
			c1.5-1.5,3.4-2.3,5.6-2.3c2.2,0,4.1,0.8,5.7,2.3c1.6,1.5,2.3,3.4,2.3,5.7c0,2.2-0.8,4.1-2.3,5.6
			C452.8,377.6,450.9,378.3,448.7,378.3z M454.6,474.1h-12.2v-76.3h12.2V474.1z"/>
		<path class="st2" d="M531.4,470.5c-5.9,3.5-12.8,5.3-20.9,5.3c-10.9,0-19.7-3.5-26.4-10.6c-6.7-7.1-10-16.3-10-27.5
			c0-12.6,3.6-22.7,10.8-30.3c7.2-7.6,16.8-11.4,28.9-11.4c6.7,0,12.6,1.2,17.7,3.7v12.5c-5.7-4-11.7-6-18.2-6
			c-7.8,0-14.2,2.8-19.2,8.4c-5,5.6-7.5,12.9-7.5,22c0,8.9,2.3,16,7,21.2c4.7,5.2,11,7.8,18.9,7.8c6.7,0,12.9-2.2,18.8-6.6V470.5z"
			/>
		<path class="st2" d="M589.7,410.1c-2.1-1.6-5.2-2.5-9.2-2.5c-5.2,0-9.6,2.5-13.1,7.4c-3.5,4.9-5.3,11.6-5.3,20.1v38.9h-12.2v-76.3
			h12.2v15.7h0.3c1.7-5.4,4.4-9.6,8-12.6c3.6-3,7.6-4.5,12-4.5c3.2,0,5.6,0.3,7.3,1V410.1z"/>
		<path class="st2" d="M634.9,475.8c-11.3,0-20.3-3.6-27-10.7c-6.7-7.1-10.1-16.6-10.1-28.4c0-12.8,3.5-22.8,10.5-30
			c7-7.2,16.5-10.8,28.4-10.8c11.4,0,20.3,3.5,26.7,10.5c6.4,7,9.6,16.7,9.6,29.2c0,12.2-3.4,21.9-10.3,29.3
			C655.7,472.2,646.5,475.8,634.9,475.8z M635.8,406.2c-7.9,0-14.1,2.7-18.6,8c-4.6,5.3-6.9,12.7-6.9,22.1c0,9,2.3,16.2,6.9,21.4
			c4.6,5.2,10.8,7.8,18.6,7.8c7.9,0,14-2.6,18.2-7.7c4.3-5.1,6.4-12.4,6.4-21.8c0-9.5-2.1-16.9-6.4-22.1
			C649.8,408.8,643.7,406.2,635.8,406.2z"/>
	</g>
	<g class="st1">
		<path class="st2" d="M687.8,471.3v-13.1c6.7,4.9,14,7.4,22,7.4c10.7,0,16.1-3.6,16.1-10.7c0-2-0.5-3.8-1.4-5.2s-2.2-2.7-3.7-3.8
			c-1.6-1.1-3.4-2.1-5.5-2.9c-2.1-0.9-4.4-1.8-6.8-2.7c-3.4-1.3-6.4-2.7-8.9-4.1c-2.6-1.4-4.7-2.9-6.4-4.6s-3-3.7-3.9-5.9
			c-0.9-2.2-1.3-4.7-1.3-7.7c0-3.6,0.8-6.7,2.5-9.5c1.6-2.8,3.8-5.1,6.6-6.9c2.7-1.9,5.9-3.3,9.4-4.2c3.5-0.9,7.1-1.4,10.8-1.4
			c6.6,0,12.5,1.1,17.7,3.4v12.4c-5.6-3.7-12.1-5.5-19.4-5.5c-2.3,0-4.3,0.3-6.2,0.8c-1.8,0.5-3.4,1.3-4.7,2.2
			c-1.3,0.9-2.3,2.1-3.1,3.4c-0.7,1.3-1.1,2.8-1.1,4.4c0,2,0.4,3.7,1.1,5c0.7,1.3,1.8,2.5,3.2,3.6c1.4,1,3.1,2,5.1,2.8
			c2,0.8,4.2,1.8,6.8,2.8c3.4,1.3,6.4,2.6,9.1,4c2.7,1.4,5,2.9,6.9,4.6c1.9,1.7,3.3,3.7,4.4,5.9c1,2.2,1.5,4.9,1.5,8
			c0,3.8-0.8,7.1-2.5,9.8c-1.7,2.8-3.9,5.1-6.7,6.9c-2.8,1.8-6,3.2-9.6,4.1c-3.6,0.9-7.4,1.3-11.4,1.3
			C700.4,475.8,693.6,474.3,687.8,471.3z"/>
	</g>
	<g>
		<path class="st2" d="M789.2,475.8c-11.3,0-20.3-3.6-27-10.7c-6.7-7.1-10.1-16.6-10.1-28.4c0-12.8,3.5-22.8,10.5-30
			c7-7.2,16.5-10.8,28.4-10.8c11.4,0,20.3,3.5,26.7,10.5c6.4,7,9.6,16.7,9.6,29.2c0,12.2-3.4,21.9-10.3,29.3
			C810,472.2,800.7,475.8,789.2,475.8z M790.1,406.2c-7.9,0-14.1,2.7-18.6,8c-4.6,5.3-6.9,12.7-6.9,22.1c0,9,2.3,16.2,6.9,21.4
			c4.6,5.2,10.8,7.8,18.6,7.8c7.9,0,14-2.6,18.2-7.7c4.3-5.1,6.4-12.4,6.4-21.8c0-9.5-2.1-16.9-6.4-22.1
			C804,408.8,798,406.2,790.1,406.2z"/>
		<path class="st2" d="M884.4,371.8c-2.4-1.3-5.1-2-8.1-2c-8.5,0-12.8,5.4-12.8,16.2v11.8h17.9v10.4h-17.9v65.9h-12.2v-65.9h-13
			v-10.4h13v-12.4c0-8,2.3-14.3,6.9-19c4.6-4.6,10.4-7,17.3-7c3.7,0,6.7,0.4,8.9,1.3V371.8z"/>
	</g>
	<g class="st1">
		<path class="st2" d="M929.9,473.3c-2.9,1.6-6.7,2.4-11.4,2.4c-13.4,0-20.1-7.5-20.1-22.4v-45.2h-13.1v-10.4h13.1v-18.6l12.2-4
			v22.6h19.2v10.4h-19.2v43c0,5.1,0.9,8.8,2.6,11c1.7,2.2,4.6,3.3,8.6,3.3c3.1,0,5.7-0.8,8-2.5V473.3z"/>
	</g>
	<g class="st1">
		<path class="st2" d="M301.9,622.4v-14.8c1.7,1.5,3.7,2.8,6.1,4c2.4,1.2,4.8,2.2,7.5,3c2.6,0.8,5.2,1.5,7.9,1.9
			c2.6,0.4,5.1,0.7,7.3,0.7c7.7,0,13.5-1.4,17.3-4.3c3.8-2.9,5.7-7,5.7-12.3c0-2.9-0.6-5.4-1.9-7.5c-1.3-2.1-3-4.1-5.3-5.9
			c-2.2-1.8-4.9-3.5-7.9-5.1c-3.1-1.6-6.3-3.3-9.9-5.1c-3.7-1.9-7.2-3.8-10.4-5.7c-3.2-1.9-6-4.1-8.4-6.4c-2.4-2.3-4.3-5-5.6-7.9
			c-1.4-3-2.1-6.4-2.1-10.4c0-4.9,1.1-9.1,3.2-12.7c2.1-3.6,4.9-6.6,8.4-8.9c3.5-2.3,7.4-4.1,11.9-5.2c4.4-1.1,9-1.7,13.6-1.7
			c10.5,0,18.2,1.3,23,3.8v14.1c-6.3-4.4-14.4-6.6-24.3-6.6c-2.7,0-5.5,0.3-8.2,0.9c-2.7,0.6-5.2,1.5-7.3,2.8c-2.1,1.3-3.9,3-5.2,5
			c-1.3,2-2,4.5-2,7.5c0,2.7,0.5,5.1,1.5,7.1c1,2,2.5,3.8,4.5,5.4c2,1.6,4.4,3.2,7.3,4.8c2.9,1.5,6.2,3.2,9.9,5.1
			c3.8,1.9,7.5,3.9,10.9,6c3.4,2.1,6.4,4.4,9,6.9c2.6,2.5,4.6,5.3,6.2,8.4c1.5,3.1,2.3,6.6,2.3,10.6c0,5.3-1,9.7-3.1,13.4
			c-2.1,3.7-4.8,6.6-8.4,8.9c-3.5,2.3-7.5,3.9-12.1,5c-4.6,1-9.4,1.5-14.5,1.5c-1.7,0-3.8-0.1-6.3-0.4c-2.5-0.3-5-0.7-7.6-1.2
			c-2.6-0.5-5-1.2-7.3-1.9C305.2,624.2,303.3,623.4,301.9,622.4z"/>
		<path class="st2" d="M451.3,531.2h-30.9v95.6h-12.5v-95.6h-30.8v-11.3h74.2V531.2z"/>
	</g>
	<g class="st1">
		<path class="st2" d="M533.7,622.3c-7.9,4.2-17.7,6.3-29.5,6.3c-15.2,0-27.4-4.9-36.5-14.7c-9.1-9.8-13.7-22.6-13.7-38.5
			c0-17.1,5.1-30.9,15.4-41.5c10.3-10.5,23.3-15.8,39.1-15.8c10.1,0,18.5,1.5,25.2,4.4v13.3c-7.7-4.3-16.1-6.4-25.3-6.4
			c-12.3,0-22.2,4.1-29.9,12.3c-7.6,8.2-11.4,19.2-11.4,32.9c0,13,3.6,23.4,10.7,31.1c7.1,7.7,16.5,11.6,28.1,11.6
			c10.7,0,20-2.4,27.9-7.2V622.3z"/>
	</g>
</g>
</svg>
